<svg xmlns="http://www.w3.org/2000/svg" width="60.399" height="40" viewBox="0 0 60.399 40"><defs><style>.a{fill:#fff;}</style></defs><g transform="translate(-72.02 -70.31)"><path class="a" d="M699.73,376.673l.03-.122a.4.4,0,0,0,.3.135.184.184,0,0,0,.208-.173c0-.1-.049-.157-.234-.206s-.275-.15-.275-.289.116-.257.318-.257a.448.448,0,0,1,.269.09l-.03.1a.445.445,0,0,0-.239-.088c-.124,0-.195.058-.195.15,0,.071.045.131.2.172.213.056.31.148.31.312a.3.3,0,0,1-.332.292.458.458,0,0,1-.329-.118" transform="translate(-569.164 -276.961)"/><path class="a" d="M708.7,376h.129l.382.822.382-.822h.122v.99h-.127v-.674c0-.025,0-.081,0-.083s-.024.06-.034.083l-.309.674h-.09l-.309-.674c-.011-.023-.033-.077-.035-.083s0,.058,0,.083v.674h-.12V376Z" transform="translate(-577.298 -277.179)"/><path class="a" d="M81.342,381.044V376.4a.949.949,0,0,0-1.069-1.036,1.011,1.011,0,0,0-1.136,1.069v4.611H76.682V376.4a.949.949,0,0,0-1.069-1.036,1.011,1.011,0,0,0-1.136,1.069v4.611H72.02v-7.569h2.272v1.019h.017a2.129,2.129,0,0,1,2.238-1.253,2.235,2.235,0,0,1,2.238,1.237,2.432,2.432,0,0,1,2.339-1.237,2.369,2.369,0,0,1,2.673,2.54v5.263H81.342Z" transform="translate(0 -274.676)"/><path class="a" d="M215.146,375.219a1.935,1.935,0,1,0,1.7,1.921,1.8,1.8,0,0,0-1.7-1.921m0,5.914a4.028,4.028,0,1,1,4.126-4.026,3.959,3.959,0,0,1-4.126,4.026" transform="translate(-126.036 -274.531)"/><path class="a" d="M316.773,335.619a2.078,2.078,0,0,0-1.47.585v2.89a2.357,2.357,0,0,0,1.237.367,1.909,1.909,0,0,0,2.039-1.955,1.8,1.8,0,0,0-1.806-1.888m-.2,5.864a6.113,6.113,0,0,1-3.642-1.119V329.37H315.3v4.594a3.566,3.566,0,0,1,1.9-.5,3.7,3.7,0,0,1,3.809,3.876c0,2.339-1.488,4.143-4.444,4.143" transform="translate(-218.441 -234.898)"/><path class="a" d="M412.423,340.2H414.9v7.569h-2.473Zm1.237-1.036a2,2,0,0,1-1.32-1.32,1.32,1.32,0,0,1,2.639,0,2.006,2.006,0,0,1-1.32,1.32" transform="translate(-308.579 -241.399)"/><path class="a" d="M459.709,341.567a2.426,2.426,0,0,1-2.589-2.69V329.37h2.422v9.206c0,.618.351.952,1.019,1Z" transform="translate(-349.182 -234.898)"/><path class="a" d="M504.663,340.2h2.472v7.569h-2.472Zm1.237-1.036a2,2,0,0,1-1.32-1.32,1.32,1.32,0,0,1,2.639,0,2,2,0,0,1-1.32,1.32" transform="translate(-392.216 -241.399)"/><path class="a" d="M548.052,331.559a2.887,2.887,0,0,0-.986-.2c-.9,0-1.37.534-1.37,1.62v.718h2.171l-.485,2H545.7v5.563h-2.373V335.7H542.17v-2h1.153v-.885a3.17,3.17,0,0,1,3.391-3.442,5.155,5.155,0,0,1,1.788.251Z" transform="translate(-426.3 -234.898)"/><path class="a" d="M613.239,382.586c-1.153,3.041-2.356,4.143-3.775,4.694l-1.5-1.5a4.712,4.712,0,0,0,2.774-2.957l-2.723-7.05h2.373l1.1,2.941a10.552,10.552,0,0,1,.451,1.487h.034c.15-.518.317-1.053.485-1.487l1.1-2.941h2.255Z" transform="translate(-485.954 -276.97)"/><path class="a" d="M315.115,163.936a1.478,1.478,0,0,1-1.474,1.474h-6.791a1.478,1.478,0,0,1-1.474-1.474V157.57l-2.4,1.778v6.362a2.206,2.206,0,0,0,2.2,2.2h10.135a2.206,2.206,0,0,0,2.2-2.2v-6.362l-2.4-1.778v6.366Z" transform="translate(-209.419 -79.121)"/><path class="a" d="M273.541,70.31,262.5,78.8h3.775l7.267-5.388,7.267,5.388h3.775Z" transform="translate(-172.714 0)"/></g></svg>