<svg xmlns="http://www.w3.org/2000/svg" width="187.417" height="58.828" viewBox="0 0 187.417 58.828"><defs><style>.a{fill:#fff;}</style></defs><g transform="translate(-681.1 -129.4)"><path class="a" d="M760.442,152.75h-7.636v20.3h-3.3v-20.3H741.7V149.8h18.742Z" transform="translate(8.12 15.001)"/><path class="a" d="M775.009,164.277c0,5.38-3.991,9.024-9.891,9.024-5.553,0-9.718-3.471-9.718-9.024V149.7h3.3v13.709c0,4.165,2.256,6.768,6.421,6.768s6.421-2.6,6.421-6.768V149.7h3.3v14.577Z" transform="translate(18.194 14.928)"/><path class="a" d="M720.842,169.283a15.859,15.859,0,0,1-5.9,1.215,9.03,9.03,0,1,1,0-18.048,14.893,14.893,0,0,1,5.9,1.215v-3.3a24.455,24.455,0,0,0-6.074-.868c-7.809,0-12.668,5.033-12.668,11.974,0,6.421,4.338,11.974,12.668,11.974a21.1,21.1,0,0,0,6.074-.868Z" transform="translate(-21 14.78)"/><path class="a" d="M783.341,153.938a14.034,14.034,0,0,0-5.38-1.388c-2.95,0-4.165,1.562-4.165,3.124,0,1.909,1.388,2.777,3.3,3.644.521.174,1.388.694,2.082.868,3.471,1.562,5.206,3.644,5.206,6.594,0,3.471-2.95,6.594-7.983,6.594a16.662,16.662,0,0,1-5.727-1.215v-3.471a11.5,11.5,0,0,0,5.727,1.735c3.471,0,4.685-1.909,4.685-3.471,0-1.909-1.735-3.124-3.644-3.991-.521-.174-1.735-.868-2.256-1.041-2.6-1.215-4.686-2.95-4.686-6.074,0-3.644,2.95-6.247,7.636-6.247a22.619,22.619,0,0,1,5.206.868v3.471Z" transform="translate(29.298 14.854)"/><path class="a" d="M734.671,160.039h2.6c3.3,0,4.512-1.735,4.512-3.644,0-2.082-1.388-3.644-4.512-3.644h-2.6Zm2.95-10.239c5.727,0,7.636,2.777,7.636,6.247a5.788,5.788,0,0,1-4.338,5.727c1.735.694,2.776,2.429,3.818,3.991,1.041,1.735,4.685,7.462,4.685,7.462H745.43s-2.776-4.338-3.644-5.727c-2.083-3.124-3.3-4.338-5.727-4.338H734.5v10.065h-3.3V149.974h6.421Z" transform="translate(0.399 15.001)"/><path class="a" d="M726.453,153.518l-3.991,9.891h7.983l-3.991-9.891Zm11.453,19.609h-3.644l-2.776-6.768H721.421l-2.777,6.768H715l9.718-23.427h3.644Z" transform="translate(-11.514 14.928)"/><path class="a" d="M817.613,137.73a3.053,3.053,0,0,0-1.041.174c-1.562.174-4.685.521-10.586.694-.347-5.033-.694-8.156-.694-8.156a1.16,1.16,0,0,0-1.215-1.041,1.186,1.186,0,0,0-1.215,1.215,2.323,2.323,0,0,0,.173.868c0,.347.347,3.124.694,7.115h-1.909c-13.362,0-17.7-.694-20.651-1.215-1.215-.174-1.909-.347-2.256-.347a1.186,1.186,0,0,0-1.215,1.215,1.079,1.079,0,0,0,.694,1.041,12.315,12.315,0,0,0,2.43.347,159.294,159.294,0,0,0,21,1.041H803.9c0,1.909.173,3.818.173,6.074,0,8.5-.868,15.1-.868,15.618a7.519,7.519,0,0,1-.173.868,1.186,1.186,0,0,0,1.215,1.215,1.489,1.489,0,0,0,1.215-1.041,123.081,123.081,0,0,0,1.041-16.486c0-2.256,0-4.165-.173-6.074a104,104,0,0,0,11.627-.868A1.16,1.16,0,0,0,819,138.771a1.512,1.512,0,0,0-1.388-1.041" transform="translate(34.592)"/><path class="a" d="M831.387,144.324a24.621,24.621,0,0,0-3.644.521c-1.562.174-5.553.694-11.974,1.215a29.075,29.075,0,0,0-6.074-16.139.954.954,0,0,0-.868-.521,1.186,1.186,0,0,0-1.215,1.215,1.757,1.757,0,0,0,.694,1.215,26.945,26.945,0,0,1,5.206,14.4c-3.644.174-8.156.347-13.189.347-8.33,0-10.933-.174-12.842-.347-.347,0-.868-.174-1.041-.174a1.186,1.186,0,0,0-1.215,1.215,1.16,1.16,0,0,0,1.041,1.215c.868,0,5.032.347,14.056.347,4.859,0,9.2-.174,13.015-.347-.521,7.462-4.685,12.842-5.033,13.536-.173.347-.694.694-.694,1.215a1.186,1.186,0,0,0,1.215,1.215.954.954,0,0,0,.868-.521,29.478,29.478,0,0,0,6.074-15.792,116.376,116.376,0,0,0,15.792-1.735,1.489,1.489,0,0,0,1.041-1.215,1.183,1.183,0,0,0-1.215-.868m-44.251-13.709a4.82,4.82,0,0,1,2.256-1.215,1.3,1.3,0,0,1,1.215,1.215,1.172,1.172,0,0,1-.694,1.041c-1.388.868-7.983,5.206-7.983,15.271a17.752,17.752,0,0,0,7.983,15.271,1.172,1.172,0,0,1,.694,1.041,1.3,1.3,0,0,1-1.215,1.215,3.664,3.664,0,0,1-2.256-1.215,20.13,20.13,0,0,1-7.636-16.312,20.489,20.489,0,0,1,7.636-16.312" transform="translate(35.916)"/><path class="a" d="M811.816,153.968H810.6c-1.562.174-3.991.174-7.115.174h-7.115a22.607,22.607,0,0,1-1.215-7.115,26.084,26.084,0,0,1,5.206-15.1c.173-.347.694-.694.694-1.215a1.186,1.186,0,0,0-1.215-1.215.954.954,0,0,0-.868.521A29.451,29.451,0,0,0,792.9,147.2a22.715,22.715,0,0,0,1.041,7.115,89.83,89.83,0,0,1-14.056-1.215c-2.256-.347-2.95-.521-3.471-.521a1.186,1.186,0,0,0-1.215,1.215,1.483,1.483,0,0,0,.521,1.041,6.608,6.608,0,0,0,2.777.521c2.6.347,7.983,1.041,16.139,1.388,1.735,4.685,4.165,7.635,4.338,7.635a.954.954,0,0,0,.868.521,1.186,1.186,0,0,0,1.215-1.215,1.757,1.757,0,0,0-.694-1.215,26.379,26.379,0,0,1-3.124-5.553h6.247c4.165,0,7.115-.174,8.5-.174a1.186,1.186,0,0,0,1.215-1.215c-.173-1.041-.694-1.562-1.388-1.562M829,147.027a20.13,20.13,0,0,1-7.635,16.312,4.82,4.82,0,0,1-2.256,1.215,1.3,1.3,0,0,1-1.215-1.215,1.172,1.172,0,0,1,.694-1.041c1.388-.868,7.983-5.206,7.983-15.271a17.752,17.752,0,0,0-7.983-15.271,1.172,1.172,0,0,1-.694-1.041A1.3,1.3,0,0,1,819.1,129.5a3.664,3.664,0,0,1,2.256,1.215c1.041.694,7.635,5.553,7.635,16.312" transform="translate(32.754 0.074)"/><path class="a" d="M782.809,162.756h.521a.637.637,0,0,0,.521-.174c.173,0,.173-.174.173-.347v-.174l-.173-.174h-1.041Zm-.521,1.388v-2.6h1.562c.173,0,.173.174.347.174,0,.174.174.174.174.347a.614.614,0,0,1-.694.694c.173,0,.173,0,.173.174.173.174.173.347.347.521l.347.521h-.521l-.173-.347a2.146,2.146,0,0,0-.347-.521.606.606,0,0,0-.347-.174h-.347v1.041h-.521Zm1.041-3.3a2.2,2.2,0,0,0-1.041.174,1.356,1.356,0,0,0-.694.694,2.466,2.466,0,0,0-.347,1.041,1.275,1.275,0,0,0,.347,1.041,1.354,1.354,0,0,0,.694.694,1.735,1.735,0,0,0,2.082,0,1.356,1.356,0,0,0,.694-.694,1.735,1.735,0,0,0,0-2.082,1.355,1.355,0,0,0-.694-.694,2.2,2.2,0,0,0-1.041-.174m0-.347a3.217,3.217,0,0,1,1.215.347,2.091,2.091,0,0,1,.868.868,2.3,2.3,0,0,1,0,2.429,2.091,2.091,0,0,1-.868.868,2.508,2.508,0,0,1-1.215.347,3.218,3.218,0,0,1-1.215-.347,2.092,2.092,0,0,1-.868-.868,2.509,2.509,0,0,1-.347-1.215,3.216,3.216,0,0,1,.347-1.215,2.092,2.092,0,0,1,.868-.868,1.872,1.872,0,0,1,1.215-.347" transform="translate(36.945 22.869)"/></g></svg>