<?xml version="1.0" encoding="utf-8"?>
<!-- Generator: Adobe Illustrator 24.0.0, SVG Export Plug-In . SVG Version: 6.00 Build 0)  -->
<svg version="1.1" id="Layer_1" xmlns="http://www.w3.org/2000/svg" xmlns:xlink="http://www.w3.org/1999/xlink" x="0px" y="0px"
	 viewBox="0 0 168 48.1" style="enable-background:new 0 0 168 48.1;" xml:space="preserve">
<style type="text/css">
	.st0{fill:#17315A;}
	.st1{fill:#A2B7DF;}
	.st2{fill:#4E84C4;}
	.st3{fill:#3A5D92;}
</style>
<g>
	<path class="st0" d="M48.8,24.8h2.7v2.4h0.1c0.1-0.2,0.2-0.5,0.5-0.8c0.3-0.3,0.6-0.6,1-0.9c0.4-0.3,0.9-0.5,1.5-0.7
		c0.6-0.2,1.2-0.3,1.9-0.3c1.2,0,2.1,0.2,2.9,0.7c0.8,0.5,1.4,1.2,1.9,2.2c0.5-1,1.2-1.7,2.1-2.2c0.9-0.5,1.8-0.7,2.8-0.7
		c1.2,0,2.2,0.2,2.9,0.6c0.8,0.4,1.4,0.9,1.8,1.5c0.4,0.6,0.7,1.4,0.9,2.2c0.2,0.8,0.2,1.7,0.2,2.5v9h-2.9v-8.6c0-0.6,0-1.2-0.1-1.7
		c-0.1-0.5-0.2-1-0.5-1.4c-0.2-0.4-0.6-0.7-1-1c-0.4-0.2-1-0.4-1.7-0.4c-1.4,0-2.4,0.4-3,1.3c-0.6,0.9-0.9,2-0.9,3.4v8.4H59v-8.1
		c0-0.7,0-1.4-0.1-2s-0.2-1.1-0.5-1.6c-0.2-0.4-0.6-0.8-1-1c-0.4-0.2-1-0.4-1.7-0.4c-0.5,0-1,0.1-1.5,0.3c-0.5,0.2-0.9,0.5-1.3,0.9
		S52.3,29.4,52,30c-0.2,0.6-0.3,1.4-0.3,2.3v8h-2.9V24.8z"/>
	<path class="st0" d="M75.8,32.6c0-1.1,0.2-2.2,0.6-3.2c0.4-1,1-1.8,1.7-2.6c0.7-0.7,1.6-1.3,2.6-1.7c1-0.4,2.1-0.6,3.2-0.6
		c1.2,0,2.2,0.2,3.2,0.6c1,0.4,1.9,1,2.6,1.7c0.7,0.7,1.3,1.6,1.7,2.6c0.4,1,0.6,2,0.6,3.2s-0.2,2.2-0.6,3.2c-0.4,1-1,1.8-1.7,2.6
		c-0.7,0.7-1.6,1.3-2.6,1.7c-1,0.4-2.1,0.6-3.2,0.6c-1.2,0-2.2-0.2-3.2-0.6s-1.9-1-2.6-1.7c-0.7-0.7-1.3-1.6-1.7-2.6
		C76,34.8,75.8,33.7,75.8,32.6z M78.9,32.6c0,0.8,0.1,1.5,0.4,2.2c0.2,0.7,0.6,1.2,1,1.7c0.4,0.5,1,0.8,1.6,1.1
		c0.6,0.3,1.3,0.4,2.1,0.4c0.8,0,1.5-0.1,2.1-0.4c0.6-0.3,1.2-0.6,1.6-1.1c0.4-0.5,0.8-1,1-1.7c0.2-0.7,0.4-1.4,0.4-2.2
		c0-0.8-0.1-1.5-0.4-2.2c-0.2-0.7-0.6-1.2-1-1.7c-0.4-0.5-1-0.8-1.6-1.1c-0.6-0.3-1.3-0.4-2.1-0.4c-0.8,0-1.5,0.1-2.1,0.4
		c-0.6,0.3-1.2,0.6-1.6,1.1c-0.4,0.5-0.8,1-1,1.7C79.1,31.1,78.9,31.8,78.9,32.6z"/>
	<path class="st0" d="M95.9,15.6h2.9v11.4h0.1c0.5-0.8,1.3-1.4,2.3-1.9c1-0.5,2-0.7,3.1-0.7c1.2,0,2.3,0.2,3.2,0.6
		c1,0.4,1.8,1,2.5,1.7c0.7,0.7,1.2,1.6,1.6,2.6c0.4,1,0.6,2.1,0.6,3.2c0,1.2-0.2,2.2-0.6,3.2c-0.4,1-0.9,1.8-1.6,2.6
		c-0.7,0.7-1.5,1.3-2.5,1.7s-2.1,0.6-3.2,0.6c-1,0-2.1-0.2-3.1-0.7c-1-0.5-1.8-1.1-2.3-1.9h-0.1v2.2h-2.9V15.6z M104,38
		c0.8,0,1.5-0.1,2.1-0.4c0.6-0.3,1.2-0.6,1.6-1.1c0.4-0.5,0.8-1,1-1.7c0.2-0.7,0.4-1.4,0.4-2.2c0-0.8-0.1-1.5-0.4-2.2
		c-0.2-0.7-0.6-1.2-1-1.7c-0.4-0.5-1-0.8-1.6-1.1c-0.6-0.3-1.3-0.4-2.1-0.4c-0.8,0-1.5,0.1-2.1,0.4c-0.6,0.3-1.2,0.6-1.6,1.1
		c-0.4,0.5-0.8,1-1,1.7c-0.2,0.7-0.4,1.4-0.4,2.2c0,0.8,0.1,1.5,0.4,2.2c0.2,0.7,0.6,1.2,1,1.7c0.4,0.5,1,0.8,1.6,1.1
		C102.5,37.8,103.2,38,104,38z"/>
	<path class="st0" d="M116.2,19.3c0-0.6,0.2-1.1,0.6-1.5c0.4-0.4,0.9-0.6,1.5-0.6s1.1,0.2,1.5,0.6c0.4,0.4,0.6,0.9,0.6,1.5
		c0,0.6-0.2,1.1-0.6,1.5c-0.4,0.4-0.9,0.6-1.5,0.6s-1.1-0.2-1.5-0.6C116.5,20.4,116.2,19.9,116.2,19.3z M116.9,24.8h2.9v15.5h-2.9
		V24.8z"/>
	<path class="st0" d="M125.6,15.6h2.9v24.7h-2.9V15.6z"/>
	<path class="st0" d="M133.5,19.3c0-0.6,0.2-1.1,0.6-1.5c0.4-0.4,0.9-0.6,1.5-0.6c0.6,0,1.1,0.2,1.5,0.6c0.4,0.4,0.6,0.9,0.6,1.5
		c0,0.6-0.2,1.1-0.6,1.5c-0.4,0.4-0.9,0.6-1.5,0.6c-0.6,0-1.1-0.2-1.5-0.6C133.7,20.4,133.5,19.9,133.5,19.3z M134.2,24.8h2.9v15.5
		h-2.9V24.8z"/>
	<path class="st0" d="M143.8,27.4h-3.3v-2.5h3.3v-3.5c0-2.1,0.4-3.6,1.2-4.6c0.8-1,2.2-1.5,4.1-1.5c0.3,0,0.7,0,1,0
		c0.4,0,0.7,0.1,1.2,0.2l-0.3,2.6c-0.3-0.1-0.6-0.2-0.8-0.2c-0.3,0-0.5-0.1-0.8-0.1c-0.5,0-1,0.1-1.3,0.2c-0.3,0.2-0.6,0.4-0.8,0.7
		c-0.2,0.3-0.3,0.7-0.4,1.1c-0.1,0.4-0.1,0.9-0.1,1.5v3.6h3.5v2.5h-3.5v12.9h-2.9V27.4z"/>
	<path class="st0" d="M152.5,24.8h3.4l4.6,12.1h0.1l4.4-12.1h3.1l-7.3,18.8c-0.3,0.7-0.5,1.3-0.8,1.8c-0.3,0.6-0.6,1-1,1.4
		c-0.4,0.4-0.9,0.7-1.4,0.9c-0.6,0.2-1.2,0.3-2,0.3c-0.4,0-0.9,0-1.3-0.1c-0.4-0.1-0.9-0.2-1.3-0.3l0.4-2.7c0.6,0.2,1.2,0.4,1.7,0.4
		c0.5,0,0.8-0.1,1.2-0.2c0.3-0.1,0.6-0.3,0.8-0.5c0.2-0.2,0.4-0.5,0.6-0.8c0.2-0.3,0.3-0.7,0.5-1l1-2.4L152.5,24.8z"/>
</g>
<path class="st1" d="M22.8,0l-5.9,5.9c3.2,3.3,8.5,3.3,11.8,0L22.8,0L22.8,0z"/>
<g>
	<path class="st0" d="M17.7,35.1C14,34.5,10.4,33.2,7,31.2v9c3.4,1.5,7,2.4,10.7,2.9V35.1z"/>
	<path class="st0" d="M38.5,40.5v-9.2c-3.4,1.9-7,3.2-10.7,3.8v8.1C31.5,42.8,35,41.9,38.5,40.5z"/>
</g>
<path class="st2" d="M12.9,9.8L9,13.7c7.6,7.6,19.9,7.6,27.5,0l-3.9-3.9C27.2,15.2,18.4,15.2,12.9,9.8z"/>
<path class="st3" d="M40.4,17.7c-9.8,9.8-25.6,9.8-35.3,0L0,22.8l0.9,0H7v3.4c3.3,2,7,3.3,10.7,3.9v-2.3h10.1v2.3
	c3.7-0.6,7.3-1.9,10.7-4v-3.4h7L40.4,17.7z"/>
</svg>
