<svg xmlns="http://www.w3.org/2000/svg" width="177.952" height="39.979" viewBox="0 0 177.952 39.979"><defs><style>.a{fill:#17315a;}.b{fill:#4e84c4;}</style></defs><g transform="translate(-84.59 -61.02)"><path class="a" d="M528.55,98.626l.067-.278a.923.923,0,0,0,.681.305c.266,0,.47-.149.47-.391s-.11-.356-.528-.466-.626-.34-.626-.654.262-.583.724-.583a.99.99,0,0,1,.607.2l-.067.235a1.021,1.021,0,0,0-.54-.2c-.282,0-.442.129-.442.34s.1.294.454.391c.481.125.7.337.7.7a.681.681,0,0,1-.751.661,1.068,1.068,0,0,1-.747-.274Z" transform="translate(-270.207 -21.631)"/><path class="a" d="M533.376,96.68h.29l.869,1.859.865-1.859h.278v2.243h-.29V97.208s-.055.133-.078.184l-.7,1.53h-.2l-.7-1.53c-.027-.051-.074-.176-.078-.184s0,.129,0,.184v1.53h-.274Z" transform="translate(-273.134 -21.704)"/><path class="a" d="M211.888,112.874v-10.52a2.151,2.151,0,0,0-2.423-2.348,2.275,2.275,0,0,0-2.575,2.423v10.446h-5.561v-10.52a2.151,2.151,0,0,0-2.423-2.348,2.275,2.275,0,0,0-2.575,2.423v10.446H190.77V95.732h5.147v2.305h.039c.681-1.816,2.383-2.837,5.068-2.837,2.462,0,4.305.986,5.088,2.8.72-1.667,2.74-2.8,5.3-2.8,3.914,0,6.054,2.121,6.054,5.753v11.921Z" transform="translate(-64.624 -20.803)"/><path class="a" d="M275.15,113.352c-5.186,0-9.35-3.675-9.35-9.123s4.164-9.119,9.35-9.119,9.346,3.671,9.346,9.119A8.992,8.992,0,0,1,275.15,113.352Zm0-13.4a4.384,4.384,0,1,0,3.859,4.352A4.082,4.082,0,0,0,275.15,99.951Z" transform="translate(-110.29 -20.748)"/><path class="a" d="M329.07,98.949a13.842,13.842,0,0,1-8.25-2.536V71.51h5.373V81.917a8.082,8.082,0,0,1,4.305-1.135,8.388,8.388,0,0,1,8.63,8.782C339.136,94.863,335.763,98.949,329.07,98.949Zm.454-13.283a4.724,4.724,0,0,0-3.331,1.323v6.548a5.354,5.354,0,0,0,2.8.834,4.322,4.322,0,0,0,4.614-4.43A4.066,4.066,0,0,0,329.524,85.666Z" transform="translate(-143.776 -6.385)"/><path class="a" d="M377.47,81.321c-.982,0-2.99-2-2.99-2.99s2.008-2.951,2.99-2.951,2.99,1.957,2.99,2.951S378.456,81.321,377.47,81.321Zm-2.786,19.49V83.669h5.6v17.142Z" transform="translate(-176.435 -8.74)"/><path class="a" d="M404.51,99.149c-3.522-.149-5.87-1.957-5.87-6.094V71.53h5.479V92.382c0,1.4.783,2.156,2.309,2.27Z" transform="translate(-191.14 -6.397)"/><path class="a" d="M427.27,81.321c-.986,0-2.99-2-2.99-2.99s2-2.951,2.99-2.951,2.99,1.957,2.99,2.951S428.252,81.321,427.27,81.321Zm-2.8,19.49V83.669h5.6v17.142Z" transform="translate(-206.745 -8.74)"/><path class="a" d="M457.9,76.469a6.481,6.481,0,0,0-2.231-.454c-2.047,0-3.1,1.209-3.1,3.671v1.628h4.919l-1.1,4.54h-3.816v12.6h-5.378v-12.6H444.58v-4.54h2.614V79.306c0-5.221,3.366-7.8,7.683-7.8a11.615,11.615,0,0,1,4.047.567Z" transform="translate(-219.1 -6.385)"/><path class="a" d="M490.966,112c-2.61,6.888-5.334,9.393-8.552,10.634l-3.4-3.4c2.763-1.061,4.88-3.064,6.281-6.7L479.123,96.56h5.362l2.5,6.653A23.622,23.622,0,0,1,488,106.579h.078c.341-1.174.716-2.383,1.1-3.366l2.5-6.653h5.111Z" transform="translate(-240.055 -21.631)"/><path class="b" d="M121.829,107.44a2.524,2.524,0,0,1-2.517,2.52h-11.6a2.528,2.528,0,0,1-2.52-2.52V96.56l-4.1,3.041v10.872a3.773,3.773,0,0,0,3.757,3.761h17.342a3.773,3.773,0,0,0,3.757-3.761V99.6l-4.1-3.041Z" transform="translate(-10.042 -21.631)"/><path class="a" d="M84.59,75.532,103.466,61.02l18.872,14.512h-6.454l-12.418-9.209L91.044,75.532Z" transform="translate(0 0)"/></g></svg>