<?xml version="1.0" encoding="utf-8"?>
<!-- Generator: Adobe Illustrator 23.1.0, SVG Export Plug-In . SVG Version: 6.00 Build 0)  -->
<svg version="1.1" id="Layer_1" xmlns="http://www.w3.org/2000/svg" xmlns:xlink="http://www.w3.org/1999/xlink" x="0px" y="0px"
	 viewBox="0 0 792 612" style="enable-background:new 0 0 792 612;" xml:space="preserve">
<style type="text/css">
	.st0{fill:#17315A;}
	.st1{fill:#4E84C4;}
</style>
<path class="st0" d="M699.73,385.55l0.32-1.31c0.64,0.69,1.7,1.45,3.22,1.45c1.26,0,2.23-0.71,2.23-1.86c0-1.08-0.53-1.68-2.51-2.21
	c-2-0.53-2.95-1.61-2.95-3.1c0-1.5,1.24-2.76,3.41-2.76c1.22,0,2.3,0.5,2.88,0.97l-0.32,1.11c-0.71-0.51-1.7-0.94-2.56-0.94
	c-1.33,0-2.09,0.62-2.09,1.61c0,0.76,0.48,1.4,2.14,1.84c2.28,0.6,3.32,1.59,3.32,3.34c0,2.07-1.73,3.13-3.56,3.13
	C701.54,386.84,700.32,386.15,699.73,385.55"/>
<path class="st0" d="M708.71,376h1.38l4.1,8.81l4.1-8.81h1.31v10.61h-1.36v-7.23c0-0.27,0.04-0.87,0.04-0.89
	c-0.04,0.05-0.26,0.64-0.37,0.89l-3.31,7.23h-0.96l-3.31-7.23c-0.12-0.25-0.35-0.83-0.37-0.89c0,0.02,0.03,0.62,0.03,0.89v7.23
	h-1.29V376z"/>
<path class="st0" d="M171.97,456.91v-49.8c0-5.91-2.87-11.11-11.46-11.11c-8.42,0-12.18,5.02-12.18,11.46v49.44h-26.33v-49.8
	c0-5.91-2.86-11.11-11.46-11.11c-8.42,0-12.18,5.02-12.18,11.46v49.44H72.02v-81.15h24.36v10.93h0.18c3.22-8.6,11.28-13.43,24-13.43
	c11.64,0,20.42,4.66,24,13.26c3.4-7.88,12.9-13.26,25.08-13.26c18.45,0,28.66,10.03,28.66,27.23v56.43H171.97z"/>
<path class="st0" d="M255.26,396.01c-9.85,0-18.27,8.6-18.27,20.6c0,12,8.42,20.6,18.27,20.6c9.67,0,18.27-8.6,18.27-20.6
	C273.53,404.61,264.93,396.01,255.26,396.01 M255.26,459.42c-24.54,0-44.24-17.38-44.24-43.17c0-25.79,19.7-43.17,44.24-43.17
	c24.36,0,44.24,17.38,44.24,43.17C299.5,442.04,279.62,459.42,255.26,459.42"/>
<path class="st0" d="M354.13,396.37c-7.53,0-13.26,3.58-15.76,6.27v30.99c2.69,1.97,8.24,3.94,13.26,3.94
	c13.43,0,21.86-9.13,21.86-20.96C373.47,405.32,365.59,396.37,354.13,396.37 M351.98,459.24c-17.2,0-31.17-5.91-39.05-12V329.37
	h25.44v49.26c3.4-2.69,12-5.37,20.42-5.37c22.39,0,40.84,15.94,40.84,41.56C399.62,439.9,383.68,459.24,351.98,459.24"/>
<path class="st0" d="M413.23,375.77h26.51v81.15h-26.51V375.77z M426.49,364.66c-4.66,0-14.15-9.49-14.15-14.15
	c0-4.66,9.49-13.97,14.15-13.97c4.66,0,14.15,9.31,14.15,13.97C440.64,355.17,431.14,364.66,426.49,364.66"/>
<path class="st0" d="M484.88,460.14c-16.66-0.72-27.76-9.32-27.76-28.84V329.37h25.97v98.7c0,6.63,3.76,10.21,10.93,10.75
	L484.88,460.14z"/>
<path class="st0" d="M505.47,375.77h26.51v81.15h-26.51V375.77z M518.73,364.66c-4.66,0-14.15-9.49-14.15-14.15
	c0-4.66,9.49-13.97,14.15-13.97c4.66,0,14.15,9.31,14.15,13.97C532.88,355.17,523.39,364.66,518.73,364.66"/>
<path class="st0" d="M605.24,352.84c-3.04-1.25-7.34-2.15-10.57-2.15c-9.67,0-14.69,5.73-14.69,17.37v7.7h23.28l-5.2,21.49h-18.09
	v59.65h-25.44v-59.65h-12.36v-21.49h12.36v-9.49c0-24.72,15.94-36.9,36.36-36.9c7.52,0,15.05,0.9,19.17,2.69L605.24,352.84z"/>
<path class="st0" d="M664.56,448.85c-12.36,32.6-25.26,44.42-40.48,50.33l-16.12-16.12c13.08-5.02,23.11-14.51,29.74-31.7
	l-29.2-75.59h25.44l11.82,31.53c1.79,4.66,3.58,10.21,4.84,15.94h0.36c1.61-5.55,3.4-11.29,5.2-15.94l11.82-31.53h24.18
	L664.56,448.85z"/>
<path class="st1" d="M433.09,225.82c0,8.69-7.11,15.8-15.8,15.8h-72.81c-8.69,0-15.8-7.11-15.8-15.8v-68.25l-25.7,19.06v68.21
	c0,12.97,10.61,23.58,23.58,23.58h108.66c12.97,0,23.58-10.61,23.58-23.58v-68.21l-25.7-19.06V225.82z"/>
<polygon class="st0" points="380.88,70.31 262.5,161.35 302.97,161.35 380.88,103.58 458.79,161.35 499.26,161.35 "/>
</svg>
