<svg xmlns="http://www.w3.org/2000/svg" xmlns:xlink="http://www.w3.org/1999/xlink" width="155.019" height="160" viewBox="0 0 155.019 160"><defs><style>.a{fill:url(#a);}.b{fill:url(#b);}.c{fill:url(#c);}.d{fill:url(#d);}.e{fill:url(#e);}.f{fill:url(#f);}.g{fill:url(#g);}.h{fill:url(#h);}.i{fill:url(#i);}.j{fill:url(#j);}.k{fill:url(#k);}.l{fill:url(#l);}.m{fill:url(#m);}.n{fill:url(#n);}</style><radialGradient id="a" cx="372.434" cy="-34.563" fx="372.2796936035156" r="0.668" gradientTransform="matrix(2.753, 0.045, 0.181, -1.468, -565.773, -89.136)" gradientUnits="objectBoundingBox"><stop offset="0.045" stop-color="#ffea00"/><stop offset="0.12" stop-color="#ffde00"/><stop offset="0.254" stop-color="#ffbf00"/><stop offset="0.429" stop-color="#ff8e00"/><stop offset="0.769" stop-color="#ff272d"/><stop offset="0.872" stop-color="#e0255a"/><stop offset="0.953" stop-color="#cc2477"/><stop offset="1" stop-color="#c42482"/></radialGradient><radialGradient id="b" cx="0.729" cy="-9.119" r="1.087" gradientTransform="matrix(1.005, 0, 0, -1, -0.004, -15.932)" gradientUnits="objectBoundingBox"><stop offset="0" stop-color="#00ccda"/><stop offset="0.22" stop-color="#0083ff"/><stop offset="0.261" stop-color="#007af9"/><stop offset="0.33" stop-color="#0060e8"/><stop offset="0.333" stop-color="#005fe7"/><stop offset="0.438" stop-color="#2639ad"/><stop offset="0.522" stop-color="#401e84"/><stop offset="0.566" stop-color="#4a1475"/></radialGradient><linearGradient id="c" x1="0.573" y1="0.275" x2="0.351" y2="0.96" gradientUnits="objectBoundingBox"><stop offset="0" stop-color="#000f43" stop-opacity="0.4"/><stop offset="0.485" stop-color="#001962" stop-opacity="0.173"/><stop offset="1" stop-color="#002079" stop-opacity="0"/></linearGradient><radialGradient id="d" cx="1.658" cy="-302.453" r="1.718" gradientTransform="matrix(0.919, 0.1, 0.093, -0.995, 24.694, -528.742)" gradientUnits="objectBoundingBox"><stop offset="0.003" stop-color="#ffea00"/><stop offset="0.497" stop-color="#ff272d"/><stop offset="1" stop-color="#c42482"/></radialGradient><radialGradient id="e" cx="337.042" cy="-228.551" r="2.458" gradientTransform="matrix(1.837, 0.1, 0.185, -0.995, -209.901, -429.095)" gradientUnits="objectBoundingBox"><stop offset="0.003" stop-color="#ffe900"/><stop offset="0.157" stop-color="#ffaf0e"/><stop offset="0.316" stop-color="#ff7a1b"/><stop offset="0.472" stop-color="#ff4e26"/><stop offset="0.621" stop-color="#ff2c2e"/><stop offset="0.762" stop-color="#ff1434"/><stop offset="0.892" stop-color="#ff0538"/><stop offset="1" stop-color="#ff0039"/></radialGradient><radialGradient id="f" cx="-38.297" cy="-426.686" r="3.775" gradientTransform="matrix(0.531, 0.1, 0.054, -0.995, 4.426, -742.578)" gradientUnits="objectBoundingBox"><stop offset="0.003" stop-color="#ff272d"/><stop offset="0.497" stop-color="#c42482"/><stop offset="0.986" stop-color="#620700"/></radialGradient><radialGradient id="g" cx="0.847" cy="-1.247" fx="0.876690149307251" fy="-1.261638879776001" r="0.806" gradientTransform="matrix(1.042, 0, 0, -1, -0.035, -2.086)" gradientUnits="objectBoundingBox"><stop offset="0.156" stop-color="#ffea00"/><stop offset="0.231" stop-color="#ffde00"/><stop offset="0.365" stop-color="#ffbf00"/><stop offset="0.541" stop-color="#ff8e00"/><stop offset="0.763" stop-color="#ff272d"/><stop offset="0.796" stop-color="#f92433"/><stop offset="0.841" stop-color="#e91c45"/><stop offset="0.893" stop-color="#cf0e62"/><stop offset="0.935" stop-color="#b5007f"/></radialGradient><radialGradient id="h" cx="122.675" cy="-0.366" r="0.99" gradientTransform="matrix(2.522, 0, 0, -1, -163.408, -0.64)" gradientUnits="objectBoundingBox"><stop offset="0.279" stop-color="#ffea00"/><stop offset="0.402" stop-color="#fd0"/><stop offset="0.63" stop-color="#ffba00"/><stop offset="0.856" stop-color="#ff9100"/><stop offset="0.933" stop-color="#ff6711"/><stop offset="0.994" stop-color="#ff4a1d"/></radialGradient><linearGradient id="i" x1="-70.224" y1="48.93" x2="-68.113" y2="49.402" gradientUnits="objectBoundingBox"><stop offset="0" stop-color="#c42482" stop-opacity="0.502"/><stop offset="0.474" stop-color="#ff272d" stop-opacity="0.502"/><stop offset="0.486" stop-color="#ff2c2c" stop-opacity="0.514"/><stop offset="0.675" stop-color="#ff7a1a" stop-opacity="0.722"/><stop offset="0.829" stop-color="#ffb20d" stop-opacity="0.871"/><stop offset="0.942" stop-color="#ffd605" stop-opacity="0.965"/><stop offset="1" stop-color="#ffe302"/></linearGradient><linearGradient id="j" x1="1.169" y1="12.827" x2="0.668" y2="13.692" gradientUnits="objectBoundingBox"><stop offset="0" stop-color="#891551" stop-opacity="0.6"/><stop offset="1" stop-color="#c42482" stop-opacity="0"/></linearGradient><linearGradient id="k" x1="-1.047" y1="-0.25" x2="-0.595" y2="-0.63" gradientUnits="objectBoundingBox"><stop offset="0.005" stop-color="#891551" stop-opacity="0.502"/><stop offset="0.484" stop-color="#ff272d" stop-opacity="0.502"/><stop offset="1" stop-color="#ff272d" stop-opacity="0"/></linearGradient><linearGradient id="l" x1="-0.238" y1="-3.524" x2="-0.237" y2="-2.812" gradientUnits="objectBoundingBox"><stop offset="0" stop-color="#c42482"/><stop offset="0.083" stop-color="#c42482" stop-opacity="0.812"/><stop offset="0.206" stop-color="#c42482" stop-opacity="0.565"/><stop offset="0.328" stop-color="#c42482" stop-opacity="0.361"/><stop offset="0.447" stop-color="#c42482" stop-opacity="0.204"/><stop offset="0.562" stop-color="#c42482" stop-opacity="0.09"/><stop offset="0.673" stop-color="#c42482" stop-opacity="0.024"/><stop offset="0.773" stop-color="#c42482" stop-opacity="0"/></linearGradient><linearGradient id="m" x1="0.063" y1="1.237" x2="0.924" y2="0.359" gradientUnits="objectBoundingBox"><stop offset="0" stop-color="#fff14f"/><stop offset="0.268" stop-color="#ffee4c"/><stop offset="0.452" stop-color="#ffe643"/><stop offset="0.612" stop-color="#ffd834"/><stop offset="0.757" stop-color="#ffc41e"/><stop offset="0.892" stop-color="#ffab02"/><stop offset="0.902" stop-color="#ffa900"/><stop offset="0.949" stop-color="#ffa000"/><stop offset="1" stop-color="#ff9100"/></linearGradient><linearGradient id="n" x1="0.718" y1="0.386" x2="0.427" y2="-0.362" gradientUnits="objectBoundingBox"><stop offset="0" stop-color="#ff8e00"/><stop offset="0.04" stop-color="#ff8e00" stop-opacity="0.859"/><stop offset="0.084" stop-color="#ff8e00" stop-opacity="0.729"/><stop offset="0.13" stop-color="#ff8e00" stop-opacity="0.627"/><stop offset="0.178" stop-color="#ff8e00" stop-opacity="0.557"/><stop offset="0.227" stop-color="#ff8e00" stop-opacity="0.514"/><stop offset="0.282" stop-color="#ff8e00" stop-opacity="0.502"/><stop offset="0.389" stop-color="#ff8e00" stop-opacity="0.478"/><stop offset="0.524" stop-color="#ff8e00" stop-opacity="0.416"/><stop offset="0.676" stop-color="#ff8e00" stop-opacity="0.314"/><stop offset="0.838" stop-color="#ff8e00" stop-opacity="0.173"/><stop offset="1" stop-color="#ff8e00" stop-opacity="0"/></linearGradient></defs><g transform="translate(-35 -2)"><path class="a" d="M784.851,93.558c-3.894,4.534-5.707,14.738-1.759,25.082s10,8.1,13.772,18.646c4.979,13.919,2.662,32.616,2.662,32.616s5.986,17.335,10.157-1.079C818.916,134.238,784.851,102.075,784.851,93.558Z" transform="translate(-624.601 -76.67)"/><path class="b" d="M141.751,229.633a72.349,72.349,0,0,0,72.179-72.525c0-40.047-32.3-72.525-72.14-72.525s-72.14,32.478-72.14,72.525A72.234,72.234,0,0,0,141.751,229.633Z" transform="translate(-29.015 -69.155)"/><path class="c" d="M205.393,166.73a40.14,40.14,0,0,1-4.9,2.957,114.5,114.5,0,0,0,6.228-10.238,40.191,40.191,0,0,0,4.1-5.147c.559-.879,1.189-1.964,1.856-3.223,4.052-7.3,8.52-19.116,8.647-31.252V119.8c0-.3,0-.6,0-.9a41.882,41.882,0,0,0-.929-9.065c.033.233.061.465.09.7-.036-.179-.066-.36-.1-.539.06.331.107.65.159.973.828,7.027.238,13.882-2.713,18.935-.047.074-.094.143-.141.215a63.037,63.037,0,0,0,.34-24.65s-.681-4.127-5.752-16.657c-2.919-7.212-8.1-13.125-12.683-17.432a138.511,138.511,0,0,0-9.671-10.416c-4.2-4.421-5.958-7.735-6.681-9.9-.627-.314-8.64-8.1-9.276-8.4-3.5,5.423-14.5,22.386-9.265,38.235,2.371,7.182,8.369,14.637,14.645,18.819.276.315,3.735,4.072,5.38,12.546,1.7,8.755.806,15.586-2.69,25.688-4.112,8.863-14.645,17.624-24.508,18.52-21.086,1.916-28.8-10.587-28.8-10.587,7.534,3.012,15.865,2.382,20.931-.741,5.106-3.159,8.194-5.5,10.7-4.577,2.472.919,4.439-1.749,2.673-4.515a12.764,12.764,0,0,0-12.911-5.622c-5.111.831-9.793,4.88-16.49.958a13.915,13.915,0,0,1-1.257-.823c-.441-.29,1.435.442,1,.112a32.736,32.736,0,0,1-4.208-2.8c-.1-.091,1.011.354.912.263-6.262-5.156-5.48-8.64-5.283-10.824a6.274,6.274,0,0,1,3.212-4.9c.926.505,1.5.891,1.5.891s-.395-.807-.608-1.232c.075-.033.146-.024.221-.056.758.366,2.435,1.317,3.318,1.9a4.883,4.883,0,0,1,1.516,1.534s.3-.167.079-.874a4.545,4.545,0,0,0-1.569-2.142l.071.008a13.2,13.2,0,0,1,1.93,1.34,11.571,11.571,0,0,0,.772-4.568,6.581,6.581,0,0,0-.312-2.523c-.242-.509.136-.707.556-.179a5.332,5.332,0,0,0-.359-1.2l0-.04c.524-1.827,11.1-6.579,11.867-7.134a10.954,10.954,0,0,0,3.111-3.382,8.672,8.672,0,0,0,1.138-4.246c.058-1.438-.611-2.4-11.3-3.515a7.16,7.16,0,0,1-5.614-4.361c-.178-.421-.359-.8-.541-1.184a9.438,9.438,0,0,1-.416-1.371,25.663,25.663,0,0,1,9-12.472c.235-.214-.94.055-.705-.159a22.151,22.151,0,0,1,2.4-1.134c.413-.2-1.769-1.122-3.7-.9a9.141,9.141,0,0,0-3.427.9c.435-.433,1.817-1,1.493-1a20.677,20.677,0,0,0-6.992,2.947,1.743,1.743,0,0,1,.136-.707c-1.047.444-3.62,2.242-4.368,3.763a7.231,7.231,0,0,0,.043-.878A13.737,13.737,0,0,0,125.1,72.7l-.039.036a25.722,25.722,0,0,0-15.944-1.508c-.99-.994-1.473-.267-3.725-5.214-.153-.3.117.294,0,0-.37-.959.226,1.28,0,0-3.786,2.987-8.768,6.373-11.159,8.763-.03.1,2.79-.8,0,0-.977.279-.911.859-1.059,6.1-.036.4,0,.842-.036,1.2a33.589,33.589,0,0,0-3.7,5.563c-2.47,4.257-5.191,10.893-7.829,21.39a54.361,54.361,0,0,1,4.193-8.2c-2.193,5.572-4.313,14.322-4.737,27.8a78.664,78.664,0,0,1,2.038-8.237,76.916,76.916,0,0,0,5.649,32.693,79.768,79.768,0,0,0,8.3,15.512,73.493,73.493,0,0,0,108.343-1.866Z" transform="translate(-38.576 -34.057)"/><path class="d" d="M726.944,709.58c26.483-3.067,38.206-30.358,23.151-30.894C736.5,678.251,714.4,711.027,726.944,709.58Z" transform="translate(-576.318 -566.652)"/><path class="e" d="M871.711,471.853c18.221-10.6,13.47-33.509,13.47-33.509a74.9,74.9,0,0,0-11.809,21.19C868.653,472.428,860.756,478.258,871.711,471.853Z" transform="translate(-696.026 -365.394)"/><path class="f" d="M531.236,850.723c25.4,8.106,47.236-11.906,33.778-18.589C552.778,826.107,519.179,846.89,531.236,850.723Z" transform="translate(-413.395 -694.241)"/><path class="g" d="M177.577,127.908c.618-.872,1.454-3.664,2.192-4.912,4.485-7.24,4.517-13.012,4.517-13.144,2.709-13.532,2.463-19.057.8-29.275-1.342-8.228-7.207-20.015-12.288-25.691-5.236-5.848-1.547-3.943-6.617-8.214-4.443-4.926-8.752-9.8-11.1-11.765-16.955-14.175-16.572-17.186-16.246-17.7-.055.06-.136.15-.239.267-.2-.8-.343-1.474-.343-1.474a45.5,45.5,0,0,0-11.22,24.716c-1.274,10.085,2.5,20.6,7.967,27.317a62.01,62.01,0,0,0,9.594,9.431v0A36.792,36.792,0,0,1,151,98.583a35.746,35.746,0,0,1-43.705,34.8c-9.307-1.774-14.681-6.468-17.361-9.656a17.485,17.485,0,0,1-2.189-3.158c8.339,2.987,17.559,2.362,23.166-.735,5.65-3.133,9.069-5.455,11.843-4.539,2.735.912,4.912-1.734,2.959-4.477a14.756,14.756,0,0,0-14.289-5.575c-5.657.824-10.839,4.839-18.25.95a15.637,15.637,0,0,1-1.391-.816c-.489-.288,1.588.438,1.1.111a36.788,36.788,0,0,1-4.657-2.776c-.11-.091,1.119.351,1.008.26-6.93-5.114-6.065-8.568-5.847-10.735a6.22,6.22,0,0,1,3.554-4.855c1.024.5,1.663.883,1.663.883s-.437-.8-.673-1.222c.083-.032.162-.024.244-.055.839.363,2.7,1.306,3.673,1.881a5.094,5.094,0,0,1,1.678,1.522s.335-.165.087-.867A4.534,4.534,0,0,0,91.875,87.4l.079.008a14.777,14.777,0,0,1,2.136,1.329,10.422,10.422,0,0,0,.854-4.53,5.9,5.9,0,0,0-.345-2.5c-.268-.5.15-.7.615-.177a4.886,4.886,0,0,0-.4-1.194l0-.039c.58-1.812,12.282-6.524,13.134-7.075a11.43,11.43,0,0,0,3.443-3.354,7.946,7.946,0,0,0,1.26-4.211c.04-.891-.234-1.6-3.333-2.271a83.626,83.626,0,0,0-9.176-1.215,7.821,7.821,0,0,1-6.213-4.325c-.2-.418-.4-.8-.6-1.174a8.633,8.633,0,0,1-.46-1.359,25.767,25.767,0,0,1,9.964-12.368c.26-.213-1.041.054-.78-.158a25.922,25.922,0,0,1,2.661-1.125c.457-.193-1.958-1.112-4.091-.889a11.034,11.034,0,0,0-3.792.892c.481-.429,2.011-.992,1.652-.988a24.409,24.409,0,0,0-7.74,2.922,1.573,1.573,0,0,1,.15-.7c-1.159.44-4.006,2.223-4.835,3.732a6.413,6.413,0,0,0,.048-.871,14.423,14.423,0,0,0-2.374,2.228l-.043.035a31.552,31.552,0,0,0-17.646-1.5c-1.1-.986-2.856-2.476-5.348-7.382-.169-.3-.26.611-.39.319A22.584,22.584,0,0,1,58.854,31s-2,.913-3.661,4.725c-.308.685-.505,1.063-.7,1.441-.091.11.206-1.252.158-1.178a10.825,10.825,0,0,0-1.361,2.052,15.818,15.818,0,0,0-.742,1.835l-.047.075c-.016-.24.06-.989,0-.835a38.385,38.385,0,0,0-2,4.852,45.235,45.235,0,0,0-2.1,12.124c-.04.394,0,.835-.04,1.19a33.23,33.23,0,0,0-4.1,5.517C41.533,67.018,38.522,73.6,35.6,84.01a51.882,51.882,0,0,1,4.64-8.128c-2.427,5.526-4.774,14.2-5.243,27.566a71.31,71.31,0,0,1,2.256-8.169A69.2,69.2,0,0,0,43.508,127.7a75.411,75.411,0,0,0,29.857,33.837h0a65.339,65.339,0,0,0,17.4,8.335c.813.295,1.637.585,2.477.867-.264-.106-.519-.219-.767-.334a78.843,78.843,0,0,0,22.569,3.317c28.485.024,36.886-11.415,36.886-11.415l-.083.061q.6-.568,1.161-1.18c-4.494,4.244-14.75,4.526-18.585,4.219,6.54-1.921,10.844-3.546,19.215-6.751q1.47-.545,3.005-1.242c.111-.049.222-.1.334-.152.2-.095.4-.184.609-.284a56.785,56.785,0,0,0,11.425-7.152c8.407-6.715,10.236-13.261,11.192-17.577-.133.414-.549,1.378-.841,2-2.165,4.631-6.966,7.473-12.18,9.91a112.025,112.025,0,0,0,6.892-10.152C175.776,132.324,176.307,129.683,177.577,127.908Z" transform="translate(0 -11.724)"/><path class="h" d="M639.706,132.241a53.866,53.866,0,0,0,8.837-13c6-12.615,15.277-33.59,7.97-55.5-5.774-17.314-13.7-26.782-23.769-36.03C616.4,12.692,611.829,5.987,611.829,2c0,0-18.876,21.042-10.69,42.989s24.953,21.142,36.045,44.045c13.053,26.95-10.561,56.36-30.089,64.592,1.2-.266,43.41-9.818,45.628-33.965C652.675,120.1,651.724,126.783,639.706,132.241Z" transform="translate(-472.361)"/><path class="i" d="M399.806,268.279c.064-1.426-.676-2.384-12.469-3.49-4.852-.448-6.71-4.932-7.276-6.82a33.708,33.708,0,0,0-2.055,14.874c.262,3.727,2.766,7.727,3.963,10.076,0,0,.266-.346.389-.473,2.254-2.347,11.7-5.922,12.584-6.429C395.92,275.4,399.642,272.679,399.806,268.279Z" transform="translate(-287.149 -214.348)"/><path class="j" d="M129.475,116.55c-.169-.3-.26.61-.39.319a21.6,21.6,0,0,1-1.418-8.459s-2,.913-3.661,4.725c-.308.685-.505,1.063-.7,1.441-.091.11.206-1.252.158-1.178a11.553,11.553,0,0,0-1.357,2.012,11.836,11.836,0,0,0-.75,1.914c-.063.232.064-1.028.008-.875-3.855,7.451-4.591,18.718-4.185,18.241a38,38,0,0,1,17.614-10.843c-1-.737-3.175-2.866-5.317-7.3Z" transform="translate(-68.733 -89.108)"/><path class="k" d="M262.515,496.068c-11.337-4.841-24.226-11.668-23.74-27.177.663-20.426,19.048-16.389,19.048-16.389a6.653,6.653,0,0,0-3.206,2.9,8.8,8.8,0,0,0,1.878,9.9c6.031,6.535-12.39,15.505,16.043,32.45.717.39-6.665-.233-10.023-1.684Z" transform="translate(-170.63 -376.978)"/><path class="l" d="M285.216,581.143c8.039,2.8,17.4,2.307,23.012-.79,3.754-2.09,8.569-5.436,11.532-4.61a20.147,20.147,0,0,0-6.846-1.6c-.4,0-.875-.008-1.309-.052a22.153,22.153,0,0,0-2.562.14c-1.447.133-3.051,1.046-4.51.9-.079-.008,1.415-.614,1.293-.586-.773.161-1.612.2-2.5.306-.564.063-1.049.133-1.608.157-16.745,1.42-30.9-9.075-30.9-9.075-1.2,4.057,5.393,12.081,14.394,15.215Z" transform="translate(-197.358 -472.232)"/><path class="m" d="M668.1,151.861c16.937-16.629,25.506-36.843,21.883-59.515a47.941,47.941,0,0,1-4.04,23.517,62.385,62.385,0,0,0-4.061-40.974c-9.348-19.94-24.723-30.432-30.593-34.81-8.893-6.632-12.58-13.385-12.647-14.779-2.657,5.443-10.694,24.1-.863,40.163,9.21,15.051,23.718,19.519,33.875,33.325C690.364,124.222,668.1,151.861,668.1,151.861Z" transform="translate(-500.783 -19.511)"/><path class="n" d="M435.368,417.342c-5.919-12.228-13.307-17.561-20.3-23.342.813,1.138,1.013,1.54,1.463,2.276a43.171,43.171,0,0,1,8.636,42.619C412.778,476.68,363.2,458.888,358,453.889c2.1,21.868,38.705,32.333,62.537,18.151C434.1,459.2,445.068,437.38,435.368,417.342Z" transform="translate(-270.48 -328.26)"/></g></svg>