<svg xmlns="http://www.w3.org/2000/svg" width="147.77" height="159.925" viewBox="0 0 147.77 159.925"><defs><style>.a{fill:#008ad1;}</style></defs><g transform="translate(-122.178 -178.704)"><g transform="translate(122.178 178.704)"><path class="a" d="M179.525,218.255c-6.319,7.181-9.6,15.474-10.837,24.853h56.78c0-1.388.075-2.8-.013-4.2-.384-6.124-1.7-12-5.045-17.248-4.481-7.028-11.208-10.526-19.214-11.816-11.616-1.872-22.825.111-33.715,4.079a89.776,89.776,0,0,0-39.958,28.533c-1.789,2.226-3.382,4.61-5.345,7.305.163-1.339.256-2.306.4-3.265,2.294-15.338,7.817-29.329,17.759-41.342,11.683-14.119,26.74-22.483,44.8-25.4,17.592-2.839,34.231.015,49.676,8.96,14.216,8.234,24.016,20.3,29.865,35.591a78.154,78.154,0,0,1,5.107,27.428q.081,8.923.162,17.845c.005.594,0,1.188,0,2.012H169.3c.038,8.255,2.441,15.367,7.984,21.275,6.439,6.864,14.7,10.2,23.758,11.518a81.62,81.62,0,0,0,53.606-10.239c.428-.244.853-.491,1.283-.732a1.6,1.6,0,0,1,.36-.029c.035.575.1,1.151.1,1.727,0,10.139-.02,20.279.026,30.417a2.181,2.181,0,0,1-1.4,2.279,101.935,101.935,0,0,1-37.964,10.407c-8.484.658-16.943.663-25.343-1.041-25.274-5.124-45.433-23.63-50.059-49.66-5.279-29.7,8.859-57.13,37.261-69.259A2.644,2.644,0,0,1,179.525,218.255Z" transform="translate(-122.178 -178.704)"/></g></g></svg>