<svg xmlns="http://www.w3.org/2000/svg" xmlns:xlink="http://www.w3.org/1999/xlink" width="159.437" height="160.038" viewBox="0 0 159.437 160.038"><defs><style>.a{fill:#dd181d;}.b{fill:#ffd000;}.c{fill:#63a737;}.d{fill:#5d9d34;}.e{fill:#fff;}.f{fill:url(#a);}.g{fill:#f6c300;}.h{fill:#ce181b;}</style><linearGradient id="a" x1="0.5" y1="0.007" x2="0.5" y2="0.97" gradientUnits="objectBoundingBox"><stop offset="0" stop-color="#7eb5e4"/><stop offset="1" stop-color="#005ba7"/></linearGradient></defs><g transform="translate(-87.863 -199.693)"><path class="a" d="M190.727,199.707s47-2.116,71.912,45.121H186.73s-14.336-.472-26.557,16.922c-3.524,7.286-7.284,14.806-3.054,29.61-6.111-10.339-32.432-56.167-32.432-56.167S143.255,201.587,190.727,199.707Z" transform="translate(-23.353)"/><path class="b" d="M365.007,397.564s-21.675,41.757-75.039,39.705c6.583-11.4,37.963-65.734,37.963-65.734s7.576-12.178-1.37-31.459c-4.548-6.7-9.179-13.714-24.115-17.455,12.013-.119,64.857.007,64.857.007S387.12,355.515,365.007,397.564Z" transform="translate(-128.168 -77.925)"/><path class="c" d="M98.242,381.363s-25.324-39.654,3.139-84.84c6.577,11.4,37.941,65.748,37.941,65.748s6.757,12.65,27.928,14.544c8.071-.589,16.465-1.091,27.174-12.154-5.9,10.461-32.439,56.163-32.439,56.163S123.6,421.54,98.242,381.363Z" transform="translate(0 -61.406)"/><path class="d" d="M289.968,539.613l10.677-44.556s11.74-.916,21.578-11.713C316.116,494.087,289.968,539.613,289.968,539.613Z" transform="translate(-128.168 -179.882)"/><path class="e" d="M207.453,358.136A35.564,35.564,0,1,1,243.018,393.7,35.563,35.563,0,0,1,207.453,358.136Z" transform="translate(-75.84 -77.925)"/><path class="f" d="M223.723,368.456a29.612,29.612,0,1,1,29.613,29.612A29.611,29.611,0,0,1,223.723,368.456Z" transform="translate(-86.158 -88.245)"/><path class="g" d="M388.934,322.689,344.968,335.58s-6.63-9.73-20.891-12.9C336.433,322.64,388.934,322.689,388.934,322.689Z" transform="translate(-149.799 -77.984)"/><path class="h" d="M156.265,351.3c-6.179-10.7-31.575-54.568-31.575-54.568l32.57,32.219a31.939,31.939,0,0,0-2.078,16.719Z" transform="translate(-23.355 -61.538)"/></g></svg>