<svg xmlns="http://www.w3.org/2000/svg" xmlns:xlink="http://www.w3.org/1999/xlink" width="160" height="160" viewBox="0 0 160 160"><defs><style>.a{fill:url(#a);}.b{fill:url(#b);}.c{fill:#f3f3f3;}.d{fill:#fff;}.e{fill:#e2e2e2;}.f{fill:url(#c);}.g{fill:#cd151e;}.h{fill:#fa5153;}.i{fill:#acacac;}.j{fill:#eee;}</style><linearGradient id="a" x1="-4.556" y1="2.679" x2="-4.556" y2="2.683" gradientUnits="objectBoundingBox"><stop offset="0.25" stop-color="#dbdbda"/><stop offset="1" stop-color="#fff"/></linearGradient><radialGradient id="b" cx="0.57" cy="0.39" r="0.61" gradientTransform="matrix(1, 0, 0, -1, 0, 0.78)" gradientUnits="objectBoundingBox"><stop offset="0" stop-color="#2abce1"/><stop offset="0.114" stop-color="#2abbe1"/><stop offset="1" stop-color="#3375f8"/></radialGradient><linearGradient id="c" x1="-4.967" y1="2.858" x2="-4.968" y2="2.856" gradientUnits="objectBoundingBox"><stop offset="0" stop-opacity="0"/><stop offset="1" stop-opacity="0.2"/></linearGradient></defs><g transform="translate(-4.039 -2)"><g transform="translate(4 2)"><circle class="a" cx="80" cy="80" r="80" transform="translate(0.039)"/><circle class="b" cx="74.018" cy="74.018" r="74.018" transform="translate(6.001 6.001)"/><g transform="translate(6.439 5.939)"><path class="c" d="M127.679,31.057a.908.908,0,0,1-.938-.875V17.116a.94.94,0,0,1,1.875,0V30.182a.95.95,0,0,1-.938.875Z" transform="translate(-53.973 -12.99)"/><path class="d" d="M127.644,31.085a.975.975,0,0,1-1-.938V17.082a1,1,0,0,1,2,0V30.147a1.019,1.019,0,0,1-1,.938Zm0-14.816a.884.884,0,0,0-.875.812V30.147a.842.842,0,0,0,.875.812.884.884,0,0,0,.875-.812V17.082a.933.933,0,0,0-.875-.812Z" transform="translate(-53.939 -12.956)"/><path class="c" d="M137.4,24.189a.95.95,0,0,1-.875-.938l.438-5.814a.911.911,0,0,1,1-.812.95.95,0,0,1,.875.938l-.438,5.814a.91.91,0,0,1-1,.812Z" transform="translate(-57.443 -13.123)"/><path class="d" d="M137.366,24.217a1.015,1.015,0,0,1-.938-1l.438-5.814a.981.981,0,0,1,1.063-.875,1.015,1.015,0,0,1,.938,1l-.438,5.814a.94.94,0,0,1-1.063.875Zm.563-7.564a.833.833,0,0,0-.875.75l-.438,5.814a.88.88,0,0,0,.812.875.833.833,0,0,0,.875-.75l.438-5.814a.933.933,0,0,0-.812-.875Z" transform="translate(-57.409 -13.09)"/><path class="c" d="M144.73,32.923a.961.961,0,0,1-.75-1.063l2.563-12.815a.869.869,0,0,1,1.063-.688.961.961,0,0,1,.75,1.063l-2.563,12.815a.934.934,0,0,1-1.063.688Z" transform="translate(-60.085 -13.731)"/><path class="d" d="M144.7,32.953a1.021,1.021,0,0,1-.813-1.125l2.563-12.815a1.006,1.006,0,0,1,1.188-.751,1.02,1.02,0,0,1,.812,1.125L145.884,32.2a1.06,1.06,0,0,1-1.188.751Zm2.938-14.566a.9.9,0,0,0-1,.625l-2.563,12.815a.886.886,0,0,0,.688,1,.9.9,0,0,0,1-.625l2.563-12.815a.9.9,0,0,0-.688-1Z" transform="translate(-60.05 -13.698)"/><path class="c" d="M156.379,28.153a.932.932,0,0,1-.688-1.125l1.563-5.627a.9.9,0,0,1,1.125-.625.931.931,0,0,1,.687,1.125L157.5,27.528a.9.9,0,0,1-1.125.625Z" transform="translate(-64.231 -14.587)"/><path class="d" d="M156.367,28.184A.949.949,0,0,1,155.679,27l1.563-5.627a1,1,0,0,1,1.188-.687.948.948,0,0,1,.687,1.188L157.555,27.5a.968.968,0,0,1-1.188.688Zm2.063-7.314a.869.869,0,0,0-1.063.562L155.8,27.058a.8.8,0,0,0,.625,1,.87.87,0,0,0,1.063-.563l1.562-5.626a.9.9,0,0,0-.625-1Z" transform="translate(-64.22 -14.555)"/><path class="c" d="M161.2,38.3a.894.894,0,0,1-.5-1.187l5-12.065a.866.866,0,0,1,1.187-.438.894.894,0,0,1,.5,1.187l-5,12.065a.866.866,0,0,1-1.187.438Z" transform="translate(-65.994 -15.925)"/><path class="d" d="M161.175,38.348a.97.97,0,0,1-.563-1.25l5-12.065a.991.991,0,0,1,1.313-.5.971.971,0,0,1,.563,1.25l-5,12.065a.98.98,0,0,1-1.313.5Zm5.688-13.69a.847.847,0,0,0-1.125.438l-5,12.065a.809.809,0,0,0,.5,1.062.847.847,0,0,0,1.125-.438l5-12.065a.89.89,0,0,0-.5-1.063Z" transform="translate(-65.965 -15.906)"/><path class="c" d="M174.317,35.912a.941.941,0,0,1-.438-1.187l2.626-5.189a.913.913,0,0,1,1.25-.375.941.941,0,0,1,.438,1.188l-2.626,5.188a.913.913,0,0,1-1.25.375Z" transform="translate(-70.667 -17.532)"/><path class="d" d="M174.3,35.907a.955.955,0,0,1-.438-1.313l2.626-5.189a.978.978,0,1,1,1.75.876l-2.626,5.188a.955.955,0,0,1-1.313.438Zm3.438-6.814a.824.824,0,0,0-1.125.375l-2.625,5.189a.924.924,0,0,0,.375,1.125.823.823,0,0,0,1.125-.375l2.626-5.188a.924.924,0,0,0-.375-1.125Z" transform="translate(-70.646 -17.465)"/><path class="c" d="M176.3,47.173a.864.864,0,0,1-.25-1.251L183.3,35.107a.9.9,0,0,1,1.251-.25.863.863,0,0,1,.25,1.25l-7.251,10.815a.846.846,0,0,1-1.251.25Z" transform="translate(-71.401 -19.541)"/><path class="d" d="M176.292,47.186a1.081,1.081,0,0,1-.312-1.376L183.232,35a.988.988,0,0,1,1.375-.25,1.08,1.08,0,0,1,.312,1.375l-7.251,10.815a1,1,0,0,1-1.376.25Zm8.252-12.316a.877.877,0,0,0-1.188.188l-7.251,10.815a.814.814,0,0,0,.25,1.125.876.876,0,0,0,1.188-.188l7.251-10.752a.89.89,0,0,0-.25-1.188Z" transform="translate(-71.392 -19.492)"/><path class="c" d="M190.478,47.064a.9.9,0,0,1-.188-1.251l3.626-4.564a.893.893,0,0,1,1.251-.125.9.9,0,0,1,.187,1.251l-3.625,4.564a.893.893,0,0,1-1.251.125Z" transform="translate(-76.45 -21.745)"/><path class="d" d="M190.371,47.066a.987.987,0,0,1-.187-1.375l3.625-4.564A.928.928,0,0,1,195.185,41a.987.987,0,0,1,.187,1.375l-3.626,4.564a.928.928,0,0,1-1.375.125Zm4.689-5.939a.819.819,0,0,0-1.188.125l-3.626,4.564A.887.887,0,0,0,190.433,47a.819.819,0,0,0,1.188-.125l3.625-4.564a.876.876,0,0,0-.187-1.188Z" transform="translate(-76.406 -21.685)"/><path class="c" d="M189.554,59.089a.835.835,0,0,1,0-1.251l9.253-9.189a.884.884,0,1,1,1.25,1.25l-9.189,9.19a.907.907,0,0,1-1.313,0Z" transform="translate(-76.152 -24.393)"/><path class="d" d="M189.458,59.1a.981.981,0,0,1,0-1.376l9.252-9.189a.972.972,0,0,1,1.375,1.375l-9.252,9.19a.981.981,0,0,1-1.375,0Zm10.564-10.5a.868.868,0,0,0-1.187,0l-9.253,9.189a.84.84,0,1,0,1.188,1.188l9.252-9.19a.867.867,0,0,0,0-1.187Z" transform="translate(-76.118 -24.346)"/><path class="c" d="M204.116,61.335a.887.887,0,0,1,.062-1.251l4.439-3.751a.91.91,0,0,1,1.187,1.375l-4.438,3.751a.892.892,0,0,1-1.25-.125Z" transform="translate(-81.336 -27.139)"/><path class="d" d="M204.005,61.338a.977.977,0,0,1,.063-1.376l4.439-3.751a.936.936,0,0,1,1.375.125.977.977,0,0,1-.063,1.375l-4.438,3.751a.936.936,0,0,1-1.375-.125Zm5.751-4.939a.873.873,0,0,0-1.187-.125l-4.439,3.751a.866.866,0,0,0,1.125,1.313l4.439-3.751a.812.812,0,0,0,.063-1.187Z" transform="translate(-81.288 -27.08)"/><path class="c" d="M200.27,73.4a.846.846,0,0,1,.25-1.251L211.4,64.9a.955.955,0,0,1,1.251.25.847.847,0,0,1-.25,1.251L201.52,73.649a.982.982,0,0,1-1.25-.25Z" transform="translate(-79.991 -30.201)"/><path class="d" d="M200.173,73.309a1,1,0,0,1,.25-1.376L211.3,64.681a.962.962,0,0,1,1.376.312,1,1,0,0,1-.25,1.376l-10.877,7.251a.961.961,0,0,1-1.375-.312Zm12.378-8.19a.814.814,0,0,0-1.125-.25l-10.877,7.251a.86.86,0,0,0,.938,1.438l10.877-7.251a.886.886,0,0,0,.188-1.188Z" transform="translate(-79.957 -30.111)"/><path class="c" d="M214.73,77.849a.91.91,0,0,1,.312-1.25l5.064-2.876a.932.932,0,0,1,1.251.376.911.911,0,0,1-.313,1.25l-5.063,2.876a.931.931,0,0,1-1.251-.375Z" transform="translate(-85.136 -33.338)"/><path class="d" d="M214.633,77.911a.97.97,0,0,1,.312-1.313l5.064-2.876a1.007,1.007,0,0,1,1.313.376.97.97,0,0,1-.313,1.313l-5.063,2.876a1.006,1.006,0,0,1-1.313-.375Zm6.627-3.751a.783.783,0,0,0-1.125-.313l-5.064,2.876a.9.9,0,0,0-.312,1.125.783.783,0,0,0,1.125.312l5.064-2.876a.859.859,0,0,0,.312-1.125Z" transform="translate(-85.102 -33.338)"/><path class="c" d="M208.27,89.627a.875.875,0,0,1,.5-1.188l12.065-5a.949.949,0,0,1,1.188.5.875.875,0,0,1-.5,1.188l-12.065,5a.9.9,0,0,1-1.188-.5Z" transform="translate(-82.865 -36.801)"/><path class="d" d="M208.173,89.655a1.036,1.036,0,0,1,.5-1.313l12.065-5a.971.971,0,0,1,1.251.563,1.036,1.036,0,0,1-.5,1.313l-12.065,5a.971.971,0,0,1-1.251-.563Zm13.691-5.688a.89.89,0,0,0-1.063-.5l-12.065,5a.848.848,0,0,0-.438,1.125.891.891,0,0,0,1.063.5l12.065-5a.848.848,0,0,0,.438-1.125Z" transform="translate(-82.831 -36.767)"/><path class="c" d="M221.935,96.226a.9.9,0,0,1,.563-1.187l5.5-1.813a.886.886,0,0,1,1.125.563.9.9,0,0,1-.562,1.188l-5.5,1.813a.86.86,0,0,1-1.125-.563Z" transform="translate(-87.715 -40.275)"/><path class="d" d="M221.838,96.289a.954.954,0,0,1,.625-1.25l5.5-1.813a1,1,0,0,1,1.25.625.954.954,0,0,1-.625,1.25l-5.5,1.813a1.063,1.063,0,0,1-1.25-.625Zm7.251-2.375a.869.869,0,0,0-1.063-.563l-5.5,1.813a.836.836,0,0,0-.5,1.063.869.869,0,0,0,1.062.563l5.5-1.813a.863.863,0,0,0,.5-1.063Z" transform="translate(-87.681 -40.276)"/><path class="c" d="M213.235,107.462a.843.843,0,0,1,.688-1.063l12.815-2.5a.912.912,0,0,1,1.063.75.843.843,0,0,1-.688,1.063l-12.815,2.5a.926.926,0,0,1-1.063-.751Z" transform="translate(-84.641 -44.072)"/><path class="d" d="M213.043,107.394a1.006,1.006,0,0,1,.751-1.187l12.815-2.5a.97.97,0,0,1,1.125.812,1.006,1.006,0,0,1-.751,1.188l-12.815,2.5a.971.971,0,0,1-1.125-.813Zm14.566-2.813a.838.838,0,0,0-.938-.688l-12.815,2.5a.812.812,0,0,0-.625,1,.838.838,0,0,0,.938.688l12.815-2.5a.842.842,0,0,0,.625-1Z" transform="translate(-84.574 -44.004)"/><path class="c" d="M225.646,115.962a.865.865,0,0,1,.75-1l5.752-.688a.91.91,0,0,1,1,.812.865.865,0,0,1-.75,1l-5.752.687a.948.948,0,0,1-1-.812Z" transform="translate(-89.05 -47.758)"/><path class="d" d="M225.549,115.894a1,1,0,0,1,.812-1.125l5.752-.688a.973.973,0,0,1,1.063.876,1,1,0,0,1-.812,1.125l-5.752.688a.972.972,0,0,1-1.063-.875Zm7.564-.876a.886.886,0,0,0-.938-.75l-5.752.688a.838.838,0,0,0-.687.938.886.886,0,0,0,.938.75l5.751-.687a.839.839,0,0,0,.688-.938Z" transform="translate(-89.016 -47.69)"/><path class="c" d="M214.8,125.776a.908.908,0,0,1,.875-.938h13.066a.94.94,0,0,1,0,1.875H215.675a.908.908,0,0,1-.875-.938Z" transform="translate(-85.206 -51.508)"/><path class="d" d="M214.7,125.741a.975.975,0,0,1,.938-1h13.066a1,1,0,0,1,0,2H215.641a.976.976,0,0,1-.938-1Zm14.816.062a.885.885,0,0,0-.813-.875H215.641a.842.842,0,0,0-.812.875.885.885,0,0,0,.812.876h13.066a.934.934,0,0,0,.813-.876Z" transform="translate(-85.172 -51.473)"/><path class="c" d="M225.553,135.594a.95.95,0,0,1,.938-.875l5.814.438a.91.91,0,0,1,.812,1,.95.95,0,0,1-.938.875l-5.814-.438a1.014,1.014,0,0,1-.812-1Z" transform="translate(-89.02 -55.012)"/><path class="d" d="M225.456,135.56a1.015,1.015,0,0,1,1-.938l5.814.438a.981.981,0,0,1,.875,1.063,1.015,1.015,0,0,1-1,.938l-5.814-.438a1.076,1.076,0,0,1-.875-1.063Zm7.627.563a.791.791,0,0,0-.75-.875l-5.814-.438a.881.881,0,0,0-.875.813.791.791,0,0,0,.75.875l5.814.438a.933.933,0,0,0,.875-.812Z" transform="translate(-88.986 -54.978)"/><path class="c" d="M213.052,142.73a.962.962,0,0,1,1.063-.751l12.815,2.563a.87.87,0,0,1,.688,1.063.961.961,0,0,1-1.063.751l-12.815-2.563a.934.934,0,0,1-.688-1.063Z" transform="translate(-84.583 -57.585)"/><path class="d" d="M212.955,142.7a1.021,1.021,0,0,1,1.125-.813l12.815,2.563a1.006,1.006,0,0,1,.751,1.188,1.02,1.02,0,0,1-1.125.812l-12.815-2.563a1.061,1.061,0,0,1-.751-1.188Zm14.566,2.938a.9.9,0,0,0-.625-1l-12.815-2.563a.886.886,0,0,0-1,.688.9.9,0,0,0,.625,1l12.815,2.563a.9.9,0,0,0,1-.688Z" transform="translate(-84.549 -57.55)"/><path class="c" d="M221.757,154.379a.932.932,0,0,1,1.125-.688l5.627,1.563a.9.9,0,0,1,.625,1.125.932.932,0,0,1-1.125.688l-5.626-1.563a.9.9,0,0,1-.625-1.125Z" transform="translate(-87.663 -61.731)"/><path class="d" d="M221.663,154.367a.949.949,0,0,1,1.188-.688l5.627,1.563a1,1,0,0,1,.687,1.188.948.948,0,0,1-1.188.687l-5.626-1.562a.968.968,0,0,1-.688-1.188Zm7.314,2.063a.869.869,0,0,0-.562-1.063l-5.627-1.563a.8.8,0,0,0-1,.625.87.87,0,0,0,.563,1.063l5.626,1.563a.9.9,0,0,0,1-.625Z" transform="translate(-87.631 -61.72)"/><path class="c" d="M208.077,159.108a.894.894,0,0,1,1.187-.5l12.065,5a.949.949,0,0,1,.5,1.188.9.9,0,0,1-1.188.5l-12.065-5a.894.894,0,0,1-.5-1.187Z" transform="translate(-82.796 -63.46)"/><path class="d" d="M207.98,158.982a.971.971,0,0,1,1.25-.563l12.065,5a.992.992,0,0,1,.5,1.313.971.971,0,0,1-1.25.562l-12.065-5a1.036,1.036,0,0,1-.5-1.313Zm13.69,5.689a.848.848,0,0,0-.438-1.125l-12.065-5a.81.81,0,0,0-1.063.5.848.848,0,0,0,.438,1.125l12.065,5a.836.836,0,0,0,1.063-.5Z" transform="translate(-82.762 -63.396)"/><path class="c" d="M214.351,172.22a.941.941,0,0,1,1.187-.438l5.189,2.626a.9.9,0,0,1,.375,1.25.942.942,0,0,1-1.188.438l-5.188-2.625a.931.931,0,0,1-.375-1.251Z" transform="translate(-85.007 -68.132)"/><path class="d" d="M214.255,172.1a.955.955,0,0,1,1.313-.438l5.189,2.626a.978.978,0,1,1-.876,1.75l-5.188-2.625a.939.939,0,0,1-.438-1.313Zm6.751,3.438a.823.823,0,0,0-.375-1.125l-5.189-2.626a.924.924,0,0,0-1.125.375.824.824,0,0,0,.375,1.125l5.188,2.626a.824.824,0,0,0,1.125-.376Z" transform="translate(-84.974 -68.077)"/><path class="c" d="M200.076,174.108a.855.855,0,0,1,1.25-.25L212.2,181.11a.894.894,0,0,1,.25,1.25.855.855,0,0,1-1.25.25l-10.878-7.252a.863.863,0,0,1-.25-1.25Z" transform="translate(-79.922 -68.832)"/><path class="d" d="M199.97,174a1.081,1.081,0,0,1,1.375-.313l10.877,7.252a.988.988,0,0,1,.25,1.375,1.081,1.081,0,0,1-1.375.313l-10.878-7.252a.946.946,0,0,1-.25-1.375Zm12.315,8.252a.875.875,0,0,0-.187-1.187l-10.878-7.252a.814.814,0,0,0-1.125.25.875.875,0,0,0,.187,1.187L211.16,182.5a.814.814,0,0,0,1.125-.25Z" transform="translate(-79.879 -68.789)"/><path class="c" d="M203.646,188.187A.9.9,0,0,1,204.9,188l4.564,3.563a.891.891,0,0,1,.125,1.25.9.9,0,0,1-1.25.188l-4.564-3.563a.892.892,0,0,1-.125-1.251Z" transform="translate(-81.179 -73.847)"/><path class="d" d="M203.552,188.081a.988.988,0,0,1,1.376-.188l4.564,3.563a.982.982,0,0,1-1.188,1.563l-4.564-3.563a.987.987,0,0,1-.188-1.375Zm6,4.688a.817.817,0,0,0-.125-1.187l-4.564-3.563a.886.886,0,0,0-1.188.187.819.819,0,0,0,.125,1.188l4.564,3.563a.886.886,0,0,0,1.187-.188Z" transform="translate(-81.147 -73.803)"/><path class="c" d="M189.193,187.264a.834.834,0,0,1,1.25,0l9.253,9.189a.887.887,0,0,1,0,1.251.835.835,0,0,1-1.251,0l-9.252-9.19a.949.949,0,0,1,0-1.25Z" transform="translate(-76.041 -73.549)"/><path class="d" d="M189.142,187.167a.981.981,0,0,1,1.375,0l9.253,9.19a.973.973,0,0,1-1.376,1.375l-9.252-9.19a.884.884,0,0,1,0-1.375Zm10.5,10.44a.87.87,0,0,0,0-1.188l-9.253-9.189a.84.84,0,1,0-1.187,1.187l9.252,9.19a.767.767,0,0,0,1.188,0Z" transform="translate(-75.989 -73.515)"/><path class="c" d="M190.015,201.728a.886.886,0,0,1,1.25.063l3.814,4.376a.91.91,0,0,1-1.376,1.188l-3.813-4.376a.9.9,0,0,1,.125-1.251Z" transform="translate(-76.3 -78.699)"/><path class="d" d="M189.907,201.715a.981.981,0,0,1,1.375.063l3.813,4.376a.937.937,0,0,1-.125,1.376.982.982,0,0,1-1.376-.063l-3.813-4.377a.98.98,0,0,1,.125-1.375Zm5,5.689a.876.876,0,0,0,.125-1.188l-3.814-4.376a.866.866,0,0,0-1.313,1.125l3.813,4.376a.813.813,0,0,0,1.188.063Z" transform="translate(-76.255 -78.685)"/><path class="c" d="M176.035,198.077a.846.846,0,0,1,1.25.25l7.252,10.816a.954.954,0,0,1-.25,1.25.846.846,0,0,1-1.25-.25l-7.252-10.816a.955.955,0,0,1,.25-1.25Z" transform="translate(-71.322 -77.422)"/><path class="d" d="M175.978,197.98a1,1,0,0,1,1.375.25l7.252,10.816a.962.962,0,0,1-.313,1.375,1,1,0,0,1-1.375-.25l-7.252-10.816a.951.951,0,0,1,.313-1.375Zm8.252,12.315a.814.814,0,0,0,.25-1.125l-7.252-10.816a.864.864,0,0,0-1.187-.187.814.814,0,0,0-.25,1.125l7.252,10.816a.945.945,0,0,0,1.187.187Z" transform="translate(-71.266 -77.388)"/><path class="c" d="M173.956,212.439a.911.911,0,0,1,1.251.313l2.876,5.064a.93.93,0,0,1-.375,1.25.911.911,0,0,1-1.251-.312l-2.876-5.064a.993.993,0,0,1,.375-1.251Z" transform="translate(-70.557 -82.533)"/><path class="d" d="M173.934,212.343a.97.97,0,0,1,1.313.312l2.876,5.064a.949.949,0,0,1-.375,1.313.97.97,0,0,1-1.313-.312l-2.876-5.064a.963.963,0,0,1,.375-1.313Zm3.751,6.626a.833.833,0,0,0,.312-1.125l-2.876-5.064a.9.9,0,0,0-1.125-.313.834.834,0,0,0-.312,1.125l2.876,5.064a.819.819,0,0,0,1.125.312Z" transform="translate(-70.535 -82.499)"/><path class="c" d="M161.015,206.076a.9.9,0,0,1,1.188.438l5.063,12.065a.948.948,0,0,1-.5,1.187.919.919,0,0,1-1.188-.438l-5.064-12.065a.948.948,0,0,1,.5-1.187Z" transform="translate(-65.93 -80.296)"/><path class="d" d="M160.982,205.98a1.036,1.036,0,0,1,1.313.5l5.064,12.065a.971.971,0,0,1-.563,1.25,1.036,1.036,0,0,1-1.313-.5l-5.064-12.065a1.02,1.02,0,0,1,.563-1.25Zm5.689,13.69a.8.8,0,0,0,.438-1.063l-5.064-12.065a.848.848,0,0,0-1.125-.438.8.8,0,0,0-.438,1.063l5.064,12.065a.868.868,0,0,0,1.125.438Z" transform="translate(-65.896 -80.262)"/><path class="c" d="M156.235,219.838a.9.9,0,0,1,1.188.563l1.813,5.5a.885.885,0,0,1-.563,1.125.9.9,0,0,1-1.187-.562l-1.813-5.5a.861.861,0,0,1,.563-1.125Z" transform="translate(-64.212 -85.18)"/><path class="d" d="M156.12,219.741a.971.971,0,0,1,1.251.563l1.813,5.5a1,1,0,0,1-.625,1.25.971.971,0,0,1-1.25-.562l-1.813-5.5a1.064,1.064,0,0,1,.625-1.25Zm2.438,7.189a.87.87,0,0,0,.563-1.063l-1.813-5.5a.836.836,0,0,0-1.063-.5.87.87,0,0,0-.563,1.063l1.813,5.5a.789.789,0,0,0,1.062.5Z" transform="translate(-64.16 -85.146)"/><path class="c" d="M144.73,211.041a.844.844,0,0,1,1.063.688l2.626,12.815a.912.912,0,0,1-.751,1.063.843.843,0,0,1-1.063-.687L143.98,212.1a1,1,0,0,1,.75-1.063Z" transform="translate(-60.085 -82.073)"/><path class="d" d="M144.72,210.946a1.007,1.007,0,0,1,1.188.75l2.625,12.815a.942.942,0,0,1-.75,1.125,1.006,1.006,0,0,1-1.188-.75l-2.626-12.816a.928.928,0,0,1,.751-1.125Zm2.938,14.566a.867.867,0,0,0,.688-1L145.72,211.7a.813.813,0,0,0-1-.625.867.867,0,0,0-.688,1l2.626,12.816a.9.9,0,0,0,1,.625Z" transform="translate(-60.074 -82.04)"/><path class="c" d="M137.334,223.646a.961.961,0,0,1,1.063.751l.751,5.751a.911.911,0,0,1-.813,1,.962.962,0,0,1-1.063-.75l-.75-5.752a.91.91,0,0,1,.812-1Z" transform="translate(-57.44 -86.55)"/><path class="d" d="M137.3,223.549a1,1,0,0,1,1.125.813l.751,5.751a.973.973,0,0,1-.876,1.063,1,1,0,0,1-1.125-.812l-.751-5.752a.972.972,0,0,1,.875-1.063Zm.938,7.5a.886.886,0,0,0,.75-.938l-.75-5.751a.838.838,0,0,0-.938-.688.886.886,0,0,0-.75.938l.75,5.752a.838.838,0,0,0,.938.687Z" transform="translate(-57.405 -86.516)"/><path class="c" d="M127.291,212.8a.908.908,0,0,1,.938.875v13.066a.94.94,0,0,1-1.875,0V213.675a.95.95,0,0,1,.938-.875Z" transform="translate(-53.836 -82.706)"/><path class="d" d="M127.256,212.7a.975.975,0,0,1,1,.938v13.066a1,1,0,0,1-2,0V213.641a1.019,1.019,0,0,1,1-.938Zm0,14.816a.885.885,0,0,0,.875-.813V213.641a.842.842,0,0,0-.875-.812.884.884,0,0,0-.875.812v13.066a.934.934,0,0,0,.875.813Z" transform="translate(-53.801 -82.672)"/><path class="c" d="M117.329,223.646a.95.95,0,0,1,.875.938l-.438,5.814a.911.911,0,0,1-1,.812.95.95,0,0,1-.875-.938l.438-5.814a.91.91,0,0,1,1-.812Z" transform="translate(-50.125 -86.551)"/><path class="d" d="M117.294,223.549a1.015,1.015,0,0,1,.938,1l-.438,5.814a.981.981,0,0,1-1.063.875,1.015,1.015,0,0,1-.938-1l.438-5.814a.94.94,0,0,1,1.063-.875Zm-.563,7.564a.833.833,0,0,0,.875-.75l.438-5.814a.88.88,0,0,0-.812-.875.833.833,0,0,0-.875.75l-.438,5.814a.933.933,0,0,0,.812.875Z" transform="translate(-50.09 -86.516)"/><path class="c" d="M108.856,211.052a.961.961,0,0,1,.751,1.063l-2.563,12.816a.87.87,0,0,1-1.063.687.961.961,0,0,1-.751-1.063l2.563-12.815a.934.934,0,0,1,1.063-.688Z" transform="translate(-46.341 -82.083)"/><path class="d" d="M108.787,210.955a1.021,1.021,0,0,1,.813,1.125L107.037,224.9a1.006,1.006,0,0,1-1.188.75,1.02,1.02,0,0,1-.812-1.125l2.563-12.815a1.061,1.061,0,0,1,1.188-.751Zm-2.938,14.566a.9.9,0,0,0,1-.625l2.563-12.816a.886.886,0,0,0-.688-1,.9.9,0,0,0-1,.625l-2.563,12.815a.9.9,0,0,0,.688,1Z" transform="translate(-46.272 -82.049)"/><path class="c" d="M97.736,219.757a.932.932,0,0,1,.688,1.125l-1.563,5.627a.9.9,0,0,1-1.125.625.931.931,0,0,1-.687-1.125l1.562-5.626a.9.9,0,0,1,1.125-.625Z" transform="translate(-42.722 -85.163)"/><path class="d" d="M97.689,219.663a.949.949,0,0,1,.688,1.188l-1.563,5.627a1,1,0,0,1-1.188.687.948.948,0,0,1-.687-1.188l1.562-5.626a.968.968,0,0,1,1.188-.688Zm-2.063,7.314a.869.869,0,0,0,1.063-.562l1.563-5.627a.8.8,0,0,0-.625-1,.87.87,0,0,0-1.063.563L95,225.977a.9.9,0,0,0,.625,1Z" transform="translate(-42.676 -85.13)"/><path class="c" d="M91.045,206.061a.894.894,0,0,1,.5,1.187l-5,12.065a.866.866,0,0,1-1.187.438.973.973,0,0,1-.5-1.187l5-12.065a.866.866,0,0,1,1.187-.438Z" transform="translate(-39.095 -80.281)"/><path class="d" d="M90.977,205.965a.971.971,0,0,1,.563,1.25l-5,12.065a.991.991,0,0,1-1.313.5.971.971,0,0,1-.563-1.25l5-12.065a.98.98,0,0,1,1.313-.5Zm-5.688,13.69a.847.847,0,0,0,1.125-.438l5-12.066a.809.809,0,0,0-.5-1.063.847.847,0,0,0-1.125.438l-5,12.065a.89.89,0,0,0,.5,1.063Z" transform="translate(-39.027 -80.247)"/><path class="c" d="M79.233,212.254a.941.941,0,0,1,.438,1.187l-2.626,5.189a.913.913,0,0,1-1.25.375.941.941,0,0,1-.438-1.187l2.626-5.189a.913.913,0,0,1,1.25-.375Z" transform="translate(-35.723 -82.473)"/><path class="d" d="M79.178,212.158a.955.955,0,0,1,.438,1.313l-2.626,5.189a.978.978,0,1,1-1.75-.875l2.626-5.189a.955.955,0,0,1,1.313-.438Zm-3.438,6.814a.824.824,0,0,0,1.125-.375l2.625-5.189a.924.924,0,0,0-.375-1.125.823.823,0,0,0-1.125.375l-2.626,5.188a.924.924,0,0,0,.375,1.125Z" transform="translate(-35.667 -82.439)"/><path class="c" d="M74.7,197.883a.864.864,0,0,1,.25,1.251L67.7,209.948a.9.9,0,0,1-1.251.25.864.864,0,0,1-.25-1.251l7.251-10.815a.847.847,0,0,1,1.251-.25Z" transform="translate(-32.437 -77.354)"/><path class="d" d="M74.654,197.786a1.08,1.08,0,0,1,.312,1.375l-7.251,10.816a.989.989,0,0,1-1.376.25,1.08,1.08,0,0,1-.312-1.375l7.251-10.815a1,1,0,0,1,1.376-.25ZM66.4,210.1a.877.877,0,0,0,1.188-.188L74.841,199.1a.814.814,0,0,0-.25-1.125.876.876,0,0,0-1.188.187l-7.251,10.753a.89.89,0,0,0,.25,1.188Z" transform="translate(-32.394 -77.319)"/><path class="c" d="M62.544,201.453a.9.9,0,0,1,.187,1.25l-3.625,4.564a.892.892,0,0,1-1.251.125.9.9,0,0,1-.187-1.251l3.625-4.564a.892.892,0,0,1,1.251-.125Z" transform="translate(-29.411 -78.61)"/><path class="d" d="M62.563,201.33a.987.987,0,0,1,.187,1.375l-3.625,4.564a.929.929,0,0,1-1.376.125.988.988,0,0,1-.187-1.376l3.625-4.564a.928.928,0,0,1,1.376-.125Zm-4.689,5.939a.819.819,0,0,0,1.188-.125l3.625-4.564a.885.885,0,0,0-.187-1.187.818.818,0,0,0-1.188.125l-3.626,4.564a.877.877,0,0,0,.188,1.188Z" transform="translate(-29.367 -78.551)"/><path class="c" d="M60.376,186.876a.835.835,0,0,1,0,1.251l-9.253,9.189a.884.884,0,0,1-1.25-1.25l9.189-9.19a.907.907,0,0,1,1.313,0Z" transform="translate(-26.618 -73.412)"/><path class="d" d="M60.392,186.779a.982.982,0,0,1,0,1.376l-9.253,9.189a.972.972,0,1,1-1.375-1.375l9.252-9.19a.982.982,0,0,1,1.376,0Zm-10.565,10.5a.868.868,0,0,0,1.187,0l9.253-9.189a.84.84,0,0,0-1.188-1.188l-9.252,9.19a.867.867,0,0,0,0,1.187Z" transform="translate(-26.571 -73.377)"/><path class="c" d="M48.473,187.627a.886.886,0,0,1-.063,1.251l-4.438,3.751a.91.91,0,0,1-1.187-1.375l4.438-3.751a.891.891,0,0,1,1.25.125Z" transform="translate(-24.092 -73.663)"/><path class="d" d="M48.488,187.5a.977.977,0,0,1-.063,1.376l-4.438,3.751a.936.936,0,0,1-1.375-.125.977.977,0,0,1,.063-1.375l4.438-3.751a.936.936,0,0,1,1.375.125Zm-5.751,4.939a.874.874,0,0,0,1.187.125l4.438-3.751a.866.866,0,0,0-1.125-1.313L42.8,191.256a.812.812,0,0,0-.063,1.188Z" transform="translate(-24.045 -73.603)"/><path class="c" d="M48.736,173.647a.846.846,0,0,1-.25,1.251l-10.877,7.251a.955.955,0,0,1-1.251-.25.847.847,0,0,1,.25-1.251L47.486,173.4a.982.982,0,0,1,1.25.25Z" transform="translate(-21.854 -68.684)"/><path class="d" d="M48.764,173.591a1,1,0,0,1-.25,1.376l-10.878,7.251a.962.962,0,0,1-1.375-.312,1,1,0,0,1,.25-1.376l10.877-7.251a.961.961,0,0,1,1.375.312Zm-12.378,8.19a.814.814,0,0,0,1.125.25l10.877-7.251a.86.86,0,0,0-.938-1.438l-10.877,7.251a.886.886,0,0,0-.188,1.188Z" transform="translate(-21.82 -68.628)"/><path class="c" d="M37.488,171.554a.91.91,0,0,1-.312,1.25l-5.064,2.876a.931.931,0,0,1-1.251-.376.91.91,0,0,1,.313-1.25l5.064-2.876a.93.93,0,0,1,1.25.375Z" transform="translate(-19.921 -67.904)"/><path class="d" d="M37.55,171.457a.97.97,0,0,1-.312,1.313l-5.064,2.876a1.006,1.006,0,0,1-1.313-.376.97.97,0,0,1,.313-1.313l5.064-2.876a1,1,0,0,1,1.313.375Zm-6.627,3.751a.783.783,0,0,0,1.125.312l5.064-2.876a.9.9,0,0,0,.312-1.125.783.783,0,0,0-1.125-.313l-5.063,2.876a.858.858,0,0,0-.313,1.125Z" transform="translate(-19.921 -67.87)"/><path class="c" d="M40.092,158.624a.875.875,0,0,1-.5,1.187l-12.065,5a.949.949,0,0,1-1.188-.5.874.874,0,0,1,.5-1.187l12.065-5a.9.9,0,0,1,1.188.5Z" transform="translate(-18.337 -63.288)"/><path class="d" d="M40.154,158.5a1.036,1.036,0,0,1-.5,1.313l-12.065,5a.971.971,0,0,1-1.251-.563,1.036,1.036,0,0,1,.5-1.313l12.065-5a.97.97,0,0,1,1.25.563Zm-13.69,5.688a.89.89,0,0,0,1.063.5l12.065-5a.848.848,0,0,0,.438-1.125.89.89,0,0,0-1.063-.5l-12.065,5a.847.847,0,0,0-.438,1.125Z" transform="translate(-18.337 -63.224)"/><path class="c" d="M30.046,153.75a.9.9,0,0,1-.563,1.187l-5.5,1.813a.886.886,0,0,1-1.125-.563A.9.9,0,0,1,23.419,155l5.5-1.813a.86.86,0,0,1,1.125.563Z" transform="translate(-17.105 -61.541)"/><path class="d" d="M30.04,153.636a.954.954,0,0,1-.625,1.25l-5.5,1.813a1,1,0,0,1-1.25-.625.955.955,0,0,1,.625-1.251l5.5-1.813a1.063,1.063,0,0,1,1.25.625Zm-7.251,2.375a.869.869,0,0,0,1.063.563l5.5-1.813a.836.836,0,0,0,.5-1.063.869.869,0,0,0-1.062-.563l-5.5,1.813a.863.863,0,0,0-.5,1.063Z" transform="translate(-17.037 -61.488)"/><path class="c" d="M34.729,142.149a.843.843,0,0,1-.688,1.062l-12.815,2.5a.911.911,0,0,1-1.063-.75.843.843,0,0,1,.688-1.063l12.815-2.5a.926.926,0,0,1,1.063.75Z" transform="translate(-16.162 -57.378)"/><path class="d" d="M34.856,142.106a1,1,0,0,1-.751,1.187l-12.815,2.5a.97.97,0,0,1-1.125-.812,1.006,1.006,0,0,1,.751-1.188l12.815-2.5a.971.971,0,0,1,1.125.813ZM20.29,144.919a.839.839,0,0,0,.938.688l12.815-2.5a.813.813,0,0,0,.625-1,.838.838,0,0,0-.938-.688l-12.815,2.5a.841.841,0,0,0-.625,1Z" transform="translate(-16.164 -57.335)"/><path class="c" d="M26.222,134.656a.865.865,0,0,1-.75,1l-5.752.688a.91.91,0,0,1-1-.812.866.866,0,0,1,.75-1l5.752-.687a.948.948,0,0,1,1,.812Z" transform="translate(-15.657 -54.699)"/><path class="d" d="M26.251,134.621a1,1,0,0,1-.812,1.125l-5.752.688a.973.973,0,0,1-1.063-.876,1,1,0,0,1,.812-1.125l5.752-.688a.972.972,0,0,1,1.063.875Zm-7.564.876a.886.886,0,0,0,.938.75l5.752-.688a.838.838,0,0,0,.687-.938.886.886,0,0,0-.938-.75l-5.751.687a.839.839,0,0,0-.688.938Z" transform="translate(-15.624 -54.665)"/><path class="c" d="M33.057,125.194a.908.908,0,0,1-.875.938H19.116a.94.94,0,0,1,0-1.875H32.182a.908.908,0,0,1,.875.938Z" transform="translate(-15.49 -51.301)"/><path class="d" d="M33.085,125.159a.975.975,0,0,1-.938,1H19.082a1,1,0,0,1,0-2H32.147a.976.976,0,0,1,.938,1ZM18.269,125.1a.884.884,0,0,0,.812.875H32.147a.842.842,0,0,0,.812-.875.885.885,0,0,0-.812-.876H19.082a.933.933,0,0,0-.812.876Z" transform="translate(-15.456 -51.267)"/><path class="e" d="M26.286,115.135a.95.95,0,0,1-.938.875l-5.814-.438a.91.91,0,0,1-.812-1,.95.95,0,0,1,.938-.875l5.814.438a1.014,1.014,0,0,1,.812,1Z" transform="translate(-15.658 -47.556)"/><path class="d" d="M26.314,115.1a1.015,1.015,0,0,1-1,.938L19.5,115.6a.981.981,0,0,1-.875-1.063,1.015,1.015,0,0,1,1-.938l5.814.438a1.076,1.076,0,0,1,.875,1.063Zm-7.627-.563a.791.791,0,0,0,.75.875l5.814.438a.881.881,0,0,0,.875-.813.791.791,0,0,0-.75-.875l-5.814-.438a.933.933,0,0,0-.875.812Z" transform="translate(-15.624 -47.522)"/><path class="c" d="M34.923,106.821a.962.962,0,0,1-1.063.751l-12.815-2.626a.869.869,0,0,1-.688-1.063.962.962,0,0,1,1.063-.751L34.235,105.7a1.048,1.048,0,0,1,.688,1.125Z" transform="translate(-16.231 -43.806)"/><path class="d" d="M34.953,106.787a1.021,1.021,0,0,1-1.125.813l-12.815-2.563a1.006,1.006,0,0,1-.751-1.188,1.02,1.02,0,0,1,1.125-.812L34.2,105.6a1.06,1.06,0,0,1,.751,1.188Zm-14.566-2.938a.9.9,0,0,0,.625,1l12.815,2.563a.886.886,0,0,0,1-.688.9.9,0,0,0-.625-1l-12.815-2.563a.9.9,0,0,0-1,.688Z" transform="translate(-16.198 -43.772)"/><path class="c" d="M30.153,95.736a.932.932,0,0,1-1.125.688L23.4,94.861a.9.9,0,0,1-.625-1.125.931.931,0,0,1,1.125-.687l5.626,1.562a.9.9,0,0,1,.625,1.125Z" transform="translate(-17.087 -40.222)"/><path class="d" d="M30.184,95.689A.949.949,0,0,1,29,96.377l-5.627-1.563a1,1,0,0,1-.687-1.188.948.948,0,0,1,1.188-.687L29.5,94.5a.968.968,0,0,1,.688,1.188ZM22.87,93.626a.869.869,0,0,0,.562,1.063l5.627,1.563a.8.8,0,0,0,1-.625.87.87,0,0,0-.563-1.063L23.87,93a.9.9,0,0,0-1,.625Z" transform="translate(-17.055 -40.176)"/><path class="c" d="M40.29,89.137a.894.894,0,0,1-1.187.5l-12.065-5a.948.948,0,0,1-.5-1.188.9.9,0,0,1,1.188-.5l12.065,5a.894.894,0,0,1,.5,1.187Z" transform="translate(-18.41 -36.625)"/><path class="d" d="M40.348,89.171a.97.97,0,0,1-1.25.563l-12.065-5a.992.992,0,0,1-.5-1.313.971.971,0,0,1,1.25-.562l12.065,5a1.036,1.036,0,0,1,.5,1.313Zm-13.69-5.689a.848.848,0,0,0,.438,1.125l12.065,5a.809.809,0,0,0,1.062-.5.848.848,0,0,0-.438-1.125l-12.065-5a.836.836,0,0,0-1.063.5Z" transform="translate(-18.406 -36.595)"/><path class="c" d="M37.815,77.33a.941.941,0,0,1-1.187.438l-5.189-2.626a.9.9,0,0,1-.375-1.25.942.942,0,0,1,1.188-.438L37.44,76.08a.93.93,0,0,1,.375,1.25Z" transform="translate(-19.998 -33.257)"/><path class="d" d="M37.81,77.372a.955.955,0,0,1-1.313.438l-5.189-2.626a.978.978,0,1,1,.876-1.75l5.188,2.626a.938.938,0,0,1,.438,1.313Zm-6.751-3.438a.823.823,0,0,0,.375,1.125l5.189,2.626a.924.924,0,0,0,1.125-.375.824.824,0,0,0-.375-1.125l-5.251-2.625a.771.771,0,0,0-1.063.375Z" transform="translate(-19.93 -33.236)"/><path class="c" d="M48.979,72.925a.855.855,0,0,1-1.25.25L36.913,65.986a.894.894,0,0,1-.25-1.25.846.846,0,0,1,1.25-.25l10.877,7.252a.82.82,0,0,1,.188,1.187Z" transform="translate(-21.972 -30.04)"/><path class="d" d="M48.992,72.944a1.081,1.081,0,0,1-1.375.313L36.8,66.005a.988.988,0,0,1-.25-1.375,1.08,1.08,0,0,1,1.375-.312l10.815,7.251a.946.946,0,0,1,.25,1.375ZM36.677,64.693a.875.875,0,0,0,.187,1.187l10.877,7.252a.814.814,0,0,0,1.125-.25.875.875,0,0,0-.187-1.187L37.8,64.442a.814.814,0,0,0-1.125.25Z" transform="translate(-21.923 -29.997)"/><path class="c" d="M48.87,60.869a.9.9,0,0,1-1.251.188l-4.564-3.563a.891.891,0,0,1-.125-1.25.9.9,0,0,1,1.25-.188l4.564,3.563a.892.892,0,0,1,.125,1.25Z" transform="translate(-24.176 -27.049)"/><path class="d" d="M48.866,60.887a.988.988,0,0,1-1.376.188l-4.563-3.563a.981.981,0,1,1,1.187-1.563l4.564,3.563a.987.987,0,0,1,.188,1.375Zm-6-4.688a.817.817,0,0,0,.125,1.187l4.564,3.563a.886.886,0,0,0,1.188-.187.819.819,0,0,0-.125-1.188l-4.564-3.563a.885.885,0,0,0-1.187.188Z" transform="translate(-24.11 -27.004)"/><path class="c" d="M60.729,58.688a.835.835,0,0,1-1.25,0L50.164,49.5a.887.887,0,0,1,0-1.251.835.835,0,0,1,1.251,0l9.252,9.19a.889.889,0,0,1,.063,1.25Z" transform="translate(-26.721 -24.243)"/><path class="d" d="M60.682,58.717a.981.981,0,0,1-1.375,0l-9.253-9.189a.973.973,0,0,1,1.376-1.376l9.252,9.19a.884.884,0,0,1,0,1.375Zm-10.5-10.44a.87.87,0,0,0,0,1.188l9.253,9.189a.84.84,0,0,0,1.187-1.187l-9.252-9.253a.817.817,0,0,0-1.188.063Z" transform="translate(-26.674 -24.208)"/><path class="c" d="M62.913,46.9a.886.886,0,0,1-1.25-.063l-3.814-4.376a.91.91,0,0,1,1.376-1.188l3.813,4.376a.9.9,0,0,1-.125,1.251Z" transform="translate(-29.468 -21.764)"/><path class="d" d="M62.916,46.813a.981.981,0,0,1-1.375-.063l-3.814-4.376A.936.936,0,0,1,57.852,41a.981.981,0,0,1,1.376.062l3.813,4.377a.98.98,0,0,1-.125,1.375Zm-5-5.689a.876.876,0,0,0-.125,1.188L61.6,46.688a.866.866,0,0,0,1.313-1.125L59.1,41.186a.813.813,0,0,0-1.188-.063Z" transform="translate(-29.408 -21.682)"/><path class="c" d="M74.977,46.964a.846.846,0,0,1-1.25-.25L66.413,35.9a.955.955,0,0,1,.25-1.25.846.846,0,0,1,1.25.25l7.252,10.816a.884.884,0,0,1-.188,1.25Z" transform="translate(-32.53 -19.457)"/><path class="d" d="M74.921,46.992a1,1,0,0,1-1.375-.25L66.294,35.927a.961.961,0,0,1,.312-1.375,1,1,0,0,1,1.375.25l7.252,10.816a.951.951,0,0,1-.313,1.375ZM66.669,34.677a.814.814,0,0,0-.25,1.125l7.252,10.816a.864.864,0,0,0,1.187.187.814.814,0,0,0,.25-1.125L67.857,34.927a.889.889,0,0,0-1.187-.25Z" transform="translate(-32.473 -19.423)"/><path class="c" d="M79.462,35.779a.911.911,0,0,1-1.251-.313L75.335,30.4a.93.93,0,0,1,.375-1.25.911.911,0,0,1,1.251.312l2.876,5.064a.994.994,0,0,1-.375,1.251Z" transform="translate(-35.701 -17.524)"/><path class="d" d="M79.42,35.841a.97.97,0,0,1-1.313-.312l-2.876-5.064a.948.948,0,0,1,.375-1.313.97.97,0,0,1,1.313.312l2.876,5.064a.963.963,0,0,1-.375,1.313Zm-3.751-6.626a.834.834,0,0,0-.312,1.125L78.232,35.4a.9.9,0,0,0,1.125.313.834.834,0,0,0,.312-1.125l-2.876-5.064a.819.819,0,0,0-1.125-.312Z" transform="translate(-35.659 -17.524)"/><path class="c" d="M91.2,38.32a.9.9,0,0,1-1.188-.438L84.953,25.817a.948.948,0,0,1,.5-1.187.9.9,0,0,1,1.188.438L91.7,37.132a.948.948,0,0,1-.5,1.187Z" transform="translate(-39.129 -15.939)"/><path class="d" d="M91.136,38.348a1.036,1.036,0,0,1-1.313-.5L84.76,25.783a.971.971,0,0,1,.563-1.25,1.036,1.036,0,0,1,1.313.5L91.7,37.1a1.019,1.019,0,0,1-.563,1.25Zm-5.689-13.69a.8.8,0,0,0-.438,1.063l5.064,12.065a.848.848,0,0,0,1.125.438.8.8,0,0,0,.438-1.062L86.572,25.1a.868.868,0,0,0-1.125-.438Z" transform="translate(-39.061 -15.906)"/><path class="c" d="M97.742,28.156a.9.9,0,0,1-1.188-.563l-1.813-5.5a.885.885,0,0,1,.563-1.125.981.981,0,0,1,1.187.562l1.813,5.5a.861.861,0,0,1-.563,1.125Z" transform="translate(-42.604 -14.653)"/><path class="d" d="M97.805,28.171a.971.971,0,0,1-1.251-.563l-1.813-5.5a1,1,0,0,1,.625-1.25.971.971,0,0,1,1.25.562l1.813,5.5a1.063,1.063,0,0,1-.625,1.25Zm-2.438-7.189a.87.87,0,0,0-.563,1.063l1.813,5.5a.836.836,0,0,0,1.063.5.87.87,0,0,0,.563-1.063l-1.813-5.5a.789.789,0,0,0-1.062-.5Z" transform="translate(-42.604 -14.605)"/><path class="c" d="M108.812,32.923a.843.843,0,0,1-1.063-.688L105.124,19.42a.912.912,0,0,1,.751-1.063.843.843,0,0,1,1.063.688l2.626,12.815a1,1,0,0,1-.751,1.063Z" transform="translate(-46.297 -13.731)"/><path class="d" d="M108.744,32.953a1.007,1.007,0,0,1-1.188-.751l-2.625-12.815a.942.942,0,0,1,.75-1.125,1.006,1.006,0,0,1,1.188.751l2.626,12.815a.928.928,0,0,1-.751,1.125Zm-2.938-14.566a.867.867,0,0,0-.688,1L107.744,32.2a.813.813,0,0,0,1,.625.867.867,0,0,0,.688-1l-2.626-12.815a.9.9,0,0,0-1-.625Z" transform="translate(-46.229 -13.698)"/><path class="c" d="M117.216,24.222a.961.961,0,0,1-1.063-.75l-.751-5.752a.911.911,0,0,1,.813-1,.961.961,0,0,1,1.062.75l.751,5.752a.91.91,0,0,1-.812,1Z" transform="translate(-49.949 -13.157)"/><path class="d" d="M117.181,24.251a1,1,0,0,1-1.125-.812l-.751-5.752a.973.973,0,0,1,.876-1.063,1,1,0,0,1,1.125.812l.751,5.752a.972.972,0,0,1-.875,1.063Zm-.938-7.5a.886.886,0,0,0-.75.938l.75,5.752a.838.838,0,0,0,.938.687.886.886,0,0,0,.75-.938l-.75-5.752a.838.838,0,0,0-.938-.687Z" transform="translate(-49.915 -13.123)"/><circle class="f" cx="74.018" cy="74.018" r="74.018"/></g><path d="M154.755,53.15l-59.7,38.26H94.99v.062l-.063.063L57.669,152.986l54.763-44.073.063-.063v-.063Z" transform="translate(-23.035 -20.142)"/><path class="g" d="M173.936,47.628,114.922,89.576l17.5,17.38,41.51-59.327" transform="translate(-43.342 -18.183)"/><path class="h" d="M115.019,89.451l8.814,8.689,50.137-50.512Z" transform="translate(-43.377 -18.183)"/><path class="i" d="M92.2,112.438l17.5,17.379L50.694,171.765Z" transform="translate(-20.562 -41.171)"/><path class="j" d="M50.694,171.765l50.324-50.637L92.2,112.438Z" transform="translate(-20.562 -41.171)"/></g></g></svg>