<?xml version="1.0" encoding="utf-8"?>
<!-- Generator: Adobe Illustrator 23.0.6, SVG Export Plug-In . SVG Version: 6.00 Build 0)  -->
<svg version="1.1" id="Layer_1" xmlns="http://www.w3.org/2000/svg" xmlns:xlink="http://www.w3.org/1999/xlink" x="0px" y="0px"
	 viewBox="0 0 100 97.7" style="enable-background:new 0 0 100 97.7;" xml:space="preserve">
<style type="text/css">
	.st0{}
</style>
<path class="st0" d="M98.9,97.7H53.5V76.8h-6.9v20.9H1.1V20.9h20.9V0h55.8v41.9h20.9V97.7z M57,94.2h38.3V45.4H74.4V3.5H25.6v20.9
	H4.7v69.7H43V73.2h14V94.2z M88.4,87.2h-14v-14h14V87.2z M77.9,83.7h6.9v-6.9h-6.9V83.7z M25.6,87.2h-14v-14h14V87.2z M15.1,83.7
	h6.9v-6.9h-6.9V83.7z M88.4,66.3h-14v-14h14V66.3z M77.9,62.8h6.9v-6.9h-6.9V62.8z M67.5,66.3h-14v-14h14V66.3z M57,62.8h6.9v-6.9
	H57V62.8z M46.5,66.3h-14v-14h14V66.3z M36.1,62.8H43v-6.9h-6.9V62.8z M25.6,66.3h-14v-14h14V66.3z M15.1,62.8h6.9v-6.9h-6.9V62.8z
	 M67.5,45.4h-14v-14h14V45.4z M57,41.9h6.9v-6.9H57V41.9z M46.5,45.4h-14v-14h14V45.4z M36.1,41.9H43v-6.9h-6.9V41.9z M25.6,45.4
	h-14v-14h14V45.4z M15.1,41.9h6.9v-6.9h-6.9V41.9z M67.5,24.5h-14v-14h14V24.5z M57,20.9h6.9V14H57V20.9z M46.5,24.5h-14v-14h14
	V24.5z M36.1,20.9H43V14h-6.9V20.9z"/>
</svg>
