<svg xmlns="http://www.w3.org/2000/svg" width="24" height="24" viewBox="0 0 24 24"><defs><style>.a{fill:none;}.b{fill:#949494;}</style></defs><g transform="translate(3.102)"><path class="a" d="M0,0H24V24H0Z" transform="translate(-3.102)"/><path class="b" d="M6.62,10.79a15.149,15.149,0,0,0,6.59,6.59l2.2-2.2a.994.994,0,0,1,1.02-.24,11.407,11.407,0,0,0,3.57.57,1,1,0,0,1,1,1V20a1,1,0,0,1-1,1A17,17,0,0,1,3,4,1,1,0,0,1,4,3H7.5a1,1,0,0,1,1,1,11.36,11.36,0,0,0,.57,3.57,1,1,0,0,1-.25,1.02Z" transform="translate(-3.105)"/></g></svg>