<?xml version="1.0" encoding="utf-8"?>
<!-- Generator: Adobe Illustrator 23.0.6, SVG Export Plug-In . SVG Version: 6.00 Build 0)  -->
<svg version="1.1" id="Layer_1" xmlns="http://www.w3.org/2000/svg" xmlns:xlink="http://www.w3.org/1999/xlink" x="0px" y="0px"
	 viewBox="0 0 100 97.7" style="enable-background:new 0 0 100 97.7;" xml:space="preserve">
<style type="text/css">
	.st0{}
	.st1{}
</style>
<g>
	<path class="st0" d="M100,35.4l-6.4-4.6h0.1V8.1H80.8v-8H68.5v8.1h-6.7L50.4,0L38.9,8.1l0,0H7.1v22.3l-7.1,5l6.3,9.2l4-2.8v52h18
		v3.9h44.3v-4h18V42.3l3.2,2.3L100,35.4z M72.5,12.2V4.1h4.2v8.1h12.9V28L67.4,12.2H72.5z M11.2,12.2h22l-22,15.4
		C11.2,27.6,11.2,12.2,11.2,12.2z M68.5,93.6H32.3v-3.9h36.2V93.6z M56.6,85.7H44.3V66.1h12.3V85.7z M86.5,89.7H72.6v-4h-12V62.1
		H40.2v23.6h-12v4H14.3V38.9L50,13.7l36.4,25.8L86.5,89.7L86.5,89.7z M50,8.7L7.4,38.9l-1.7-2.5L50.4,5l44,31.4L92.7,39L50,8.7z"/>
</g>
<g>
	<rect x="70.8" y="91.2" class="st1" width="26.4" height="3"/>
</g>
<g>
	<rect x="3.2" y="91.2" class="st1" width="26.5" height="3"/>
</g>
<g>
	<polygon class="st0" points="63.3,28.2 50.4,19.9 38.5,28.2 	"/>
</g>
<g>
	<polygon class="st1" points="34.3,54.9 31.3,54.9 31.3,43.6 23.1,43.6 23.1,54.9 20.1,54.9 20.1,40.6 34.3,40.6 	"/>
</g>
<g>
	<polygon class="st1" points="80.7,54.9 77.7,54.9 77.7,43.6 69.5,43.6 69.5,54.9 66.5,54.9 66.5,40.6 80.7,40.6 	"/>
</g>
<g>
	<g>
		<path class="st1" d="M50.7,36.5c2.5,0,4.5,2,4.5,4.5s-2,4.5-4.5,4.5s-4.5-2-4.5-4.5S48.2,36.5,50.7,36.5 M50.7,33.5
			c-4.1,0-7.5,3.4-7.5,7.5s3.4,7.5,7.5,7.5s7.5-3.4,7.5-7.5S54.8,33.5,50.7,33.5L50.7,33.5z"/>
	</g>
</g>
<g>
	<polygon class="st1" points="34.3,77.9 31.3,77.9 31.3,65.6 23.1,65.6 23.1,77.9 20.1,77.9 20.1,62.6 34.3,62.6 	"/>
</g>
<g>
	<polygon class="st1" points="80.7,77.9 77.7,77.9 77.7,65.6 69.5,65.6 69.5,77.9 66.5,77.9 66.5,62.6 80.7,62.6 	"/>
</g>
<g>
	<rect x="64.4" y="80.1" class="st1" width="18.4" height="3"/>
</g>
<g>
	<rect x="18" y="80.1" class="st1" width="18.4" height="3"/>
</g>
</svg>
