<svg xmlns="http://www.w3.org/2000/svg" width="58" height="58" viewBox="0 0 58 58"><defs><style>.a{fill:none;}.b{fill:#002f82;stroke:#fff;stroke-width:2px;}</style></defs><path class="a" d="M0,0H58V58H0Z"/><path class="b" style="fill:currentColor" d="M21.914,2A16.9,16.9,0,0,0,5,18.916C5,31.6,21.914,50.331,21.914,50.331S38.827,31.6,38.827,18.916A16.9,16.9,0,0,0,21.914,2ZM9.832,18.916a12.081,12.081,0,1,1,24.162,0c0,6.96-6.959,17.375-12.081,23.875C16.888,36.339,9.832,25.8,9.832,18.916Z" transform="translate(7.086 2.835)"/><circle class="b" style="fill:currentColor" cx="6.043" cy="6.043" r="6.043" transform="translate(22.957 15.707)"/></svg>