<svg xmlns="http://www.w3.org/2000/svg" width="89.983" height="89.983" viewBox="0 0 89.983 89.983"><defs><style>.a{fill:none;}.b{fill:#3c72b9;}</style></defs><path class="a" d="M0,0H89.983V89.983H0ZM0,0H89.983V89.983H0Z"/><path class="b" d="M53.49,3H19.747a7.448,7.448,0,0,0-6.9,4.574L1.525,34.007A7.408,7.408,0,0,0,1,36.744v7.5a7.521,7.521,0,0,0,7.5,7.5H32.157L28.595,68.875l-.112,1.2a5.644,5.644,0,0,0,1.65,3.974l3.974,3.937L58.814,53.278a7.452,7.452,0,0,0,2.175-5.287V10.5A7.521,7.521,0,0,0,53.49,3Zm0,44.992L37.218,64.264l5.024-20.021H8.5v-7.5L19.747,10.5H53.49ZM68.487,3h15V47.992h-15Z" transform="translate(2.749 8.248)"/></svg>