<svg xmlns="http://www.w3.org/2000/svg" width="82.849" height="82.849" viewBox="0 0 82.849 82.849"><defs><style>.a{fill:none;}.b{}</style></defs><path class="a" d="M0,0H82.849V82.849H0Z"/><path class="b" d="M26.164,35.205C18.086,35.205,2,39.244,2,47.287v6.041H50.328V47.287C50.328,39.244,34.242,35.205,26.164,35.205ZM10.078,46.424c2.9-2,9.907-4.315,16.086-4.315s13.187,2.313,16.086,4.315Zm16.086-17.26A12.082,12.082,0,1,0,14.082,17.082,12.1,12.1,0,0,0,26.164,29.164Zm0-17.26a5.178,5.178,0,1,1-5.178,5.178A5.171,5.171,0,0,1,26.164,11.9Zm24.3,23.508c4,2.9,6.766,6.766,6.766,11.875v6.041H71.041V47.287C71.041,40.314,58.958,36.344,50.466,35.412Zm-3.59-6.248A12.082,12.082,0,0,0,46.876,5,11.894,11.894,0,0,0,41.7,6.208a18.852,18.852,0,0,1,0,21.748A11.894,11.894,0,0,0,46.876,29.164Z" transform="translate(4.904 12.26)"/></svg>