<svg xmlns="http://www.w3.org/2000/svg" width="72.729" height="72.729" viewBox="0 0 72.729 72.729"><defs><style>.a{fill:none;}.b{}</style></defs><g transform="translate(0 0)"><path class="a" d="M0,0H72.728V72.728H0Z"/><path class="b" d="M28.243,10.061a6.061,6.061,0,1,1-6.061,6.061,6.079,6.079,0,0,1,6.061-6.061m0,27.273c8.182,0,17.576,3.909,18.182,6.061v3.03H10.061v-3c.606-2.182,10-6.091,18.182-6.091M28.243,4A12.121,12.121,0,1,0,40.364,16.121,12.118,12.118,0,0,0,28.243,4Zm0,27.273C20.152,31.273,4,35.334,4,43.394v9.091H52.486V43.394C52.486,35.334,36.334,31.273,28.243,31.273Z" transform="translate(8.121 8.121)"/></g></svg>