<svg xmlns="http://www.w3.org/2000/svg" width="116.848" height="82.849" viewBox="0 0 116.848 82.849">
  <g id="Group_469" data-name="Group 469" transform="translate(-952.863 -502.478)">
    <g id="outline-people_outline-24px" transform="translate(952.863 502.478)">
      <path id="Path_404" data-name="Path 404" d="M0,0H82.849V82.849H0Z" fill="none"/>
      <path id="Path_405" data-name="Path 405" d="M26.164,35.205C18.086,35.205,2,39.244,2,47.287v6.041H50.328V47.287C50.328,39.244,34.242,35.205,26.164,35.205ZM10.078,46.424c2.9-2,9.907-4.315,16.086-4.315s13.187,2.313,16.086,4.315Zm16.086-17.26A12.082,12.082,0,1,0,14.082,17.082,12.1,12.1,0,0,0,26.164,29.164Zm0-17.26a5.178,5.178,0,1,1-5.178,5.178A5.171,5.171,0,0,1,26.164,11.9Zm24.3,23.508c4,2.9,6.766,6.766,6.766,11.875v6.041H71.041V47.287C71.041,40.314,58.958,36.344,50.466,35.412Zm-3.59-6.248A12.082,12.082,0,0,0,46.876,5,11.894,11.894,0,0,0,41.7,6.208a18.852,18.852,0,0,1,0,21.748A11.894,11.894,0,0,0,46.876,29.164Z" transform="translate(4.904 12.26)" fill="#fff"/>
    </g>
    <g id="outline-people_outline-24px-2" data-name="outline-people_outline-24px" transform="translate(969.863 502.478)">
      <path id="Path_404-2" data-name="Path 404" d="M0,0H82.849V82.849H0Z" fill="none"/>
      <path id="Path_405-2" data-name="Path 405" d="M50.466,35.412c4,2.9,6.766,6.766,6.766,11.875v6.041H71.041V47.287C71.041,40.314,58.958,36.344,50.466,35.412Zm-3.59-6.248A12.082,12.082,0,0,0,46.876,5,11.894,11.894,0,0,0,41.7,6.208a18.852,18.852,0,0,1,0,21.748A11.894,11.894,0,0,0,46.876,29.164Z" transform="translate(4.904 12.26)" fill="#fff"/>
    </g>
    <g id="outline-people_outline-24px-3" data-name="outline-people_outline-24px" transform="translate(986.863 502.478)">
      <path id="Path_404-3" data-name="Path 404" d="M0,0H82.849V82.849H0Z" fill="none"/>
      <path id="Path_405-3" data-name="Path 405" d="M50.466,35.412c4,2.9,6.766,6.766,6.766,11.875v6.041H71.041V47.287C71.041,40.314,58.958,36.344,50.466,35.412Zm-3.59-6.248A12.082,12.082,0,0,0,46.876,5,11.894,11.894,0,0,0,41.7,6.208a18.852,18.852,0,0,1,0,21.748A11.894,11.894,0,0,0,46.876,29.164Z" transform="translate(4.904 12.26)" fill="#fff"/>
    </g>
  </g>
</svg>
