<svg xmlns="http://www.w3.org/2000/svg" width="94.508" height="80.349" viewBox="0 0 94.508 80.349"><defs><style>.a,.c,.d{}.b{fill:none;stroke:#3d72b9;stroke-miterlimit:10;stroke-width:2px;}.c{font-size:15px;}.c,.d{font-family:Helvetica-Bold, Helvetica;font-weight:700;}.d{font-size:16px;}</style></defs><g transform="translate(8.979)"><path class="a" d="M16.894,2.3V78.046H10.1V2.3h6.792M19.2,0H7.8V80.349H19.2V0Z" transform="translate(-7.8)"/></g><path class="b" d="M75.346,12.5H86.4V52.1H23.2V12.5H33.675" transform="translate(3.506 1.889)"/><line class="b" x2="26.706" transform="translate(44.779 14.389)"/><g transform="translate(22.447 5.41)"><line class="b" x1="2.878" transform="translate(0.576 3.799)"/><rect class="a" width="1.151" height="7.482"/></g><g transform="translate(89.903 5.41)"><line class="b" x2="4.029" transform="translate(0 3.799)"/><g transform="translate(3.453)"><rect class="a" width="1.151" height="7.482"/></g></g><g transform="translate(0 5.41)"><line class="b" x2="6.446" transform="translate(0 3.799)"/><g transform="translate(5.871)"><rect class="a" width="1.151" height="7.482"/></g></g><line class="b" x1="60.204" transform="translate(28.203 9.209)"/><text class="c" transform="translate(35.683 37.778)"><tspan x="0" y="0">RENT</tspan></text><text class="d" transform="translate(73.005 49.076)"><tspan x="0" y="0">...</tspan></text><line class="b" x2="21.987" transform="translate(47.196 43.858)"/><line class="b" y1="14.159" transform="translate(75.169 4.605)"/><line class="b" y1="14.159" transform="translate(41.095 4.605)"/></svg>