<?xml version="1.0" encoding="utf-8"?>
<!-- Generator: Adobe Illustrator 23.0.6, SVG Export Plug-In . SVG Version: 6.00 Build 0)  -->
<svg version="1.1" id="Layer_1" xmlns="http://www.w3.org/2000/svg" xmlns:xlink="http://www.w3.org/1999/xlink" x="0px" y="0px"
	 viewBox="0 0 127.9 79.5" style="enable-background:new 0 0 127.9 79.5;" xml:space="preserve">
<style type="text/css">
	.st0{}
	.st1{}
</style>
<g>
	<path class="st0" d="M124.7,25L102.2,0.5c-0.3-0.3-0.7-0.5-1.1-0.5h-1.7c-0.4,0-0.8,0.2-1.1,0.5l-16.5,18l-16.5-18
		C64.9,0.2,64.5,0,64.1,0h-1.7c-0.4,0-0.8,0.2-1.1,0.5l-16.5,18l-16.5-18C28,0.2,27.6,0,27.1,0h-1.7c-0.4,0-0.8,0.2-1.1,0.5L1.8,25
		c-0.6,0.6-0.5,1.6,0.1,2.1l4.4,4.1c0,0.1-0.1,0.3-0.1,0.5v45.5c0,0.8,0.7,1.5,1.5,1.5h10.9h15.2h10.9h10.9h15.2h10.9h10.9h15.2
		h10.9c0.8,0,1.5-0.7,1.5-1.5V31.7c0-0.2,0-0.3-0.1-0.5l4.4-4.1C125.2,26.5,125.3,25.6,124.7,25z M32.4,75.7H20.1 M17.1,75.7H9.3
		V33.1c0.3-0.1,0.6-0.2,0.9-0.5L26.3,15l16.2,17.6c0.2,0.2,0.5,0.4,0.8,0.4v42.6h-7.9 M69.4,75.7H57.1 M54.1,75.7h-7.9V33.1
		c0.3-0.1,0.6-0.2,0.8-0.5L63.3,15l16.2,17.6c0.2,0.2,0.5,0.4,0.8,0.5v42.6l0,0h-7.9 M106.4,75.7H94.1 M91.1,75.7h-7.9V33.1
		c0.3-0.1,0.6-0.2,0.8-0.5L100.2,15l16.2,17.6c0.2,0.2,0.5,0.4,0.9,0.5v42.6h-7.9 M117.6,29.5l-16.3-17.7c-0.3-0.3-0.7-0.5-1.1-0.5
		s-0.8,0.2-1.1,0.5L82.3,30.1h-1.1L64.4,11.8c-0.3-0.3-0.7-0.5-1.1-0.5c-0.4,0-0.8,0.2-1.1,0.5L45.3,30.1h-1.1L27.4,11.8
		c-0.3-0.3-0.7-0.5-1.1-0.5s-0.8,0.2-1.1,0.5L8.9,29.5L5,25.9L26.1,3h0.4l17.2,18.7c0.6,0.6,1.6,0.6,2.2,0L63.1,3h0.4l17.2,18.7
		c0.6,0.6,1.6,0.6,2.2,0L100,3h0.4l21.1,22.9L117.6,29.5z"/>
</g>
<g>
	<polygon class="st1" points="22.1,50.7 19.1,50.7 19.1,44.7 15.5,44.7 15.5,50.7 12.5,50.7 12.5,41.7 22.1,41.7 	"/>
</g>
<g>
	<polygon class="st1" points="39.1,50.7 36.1,50.7 36.1,44.7 32.5,44.7 32.5,50.7 29.5,50.7 29.5,41.7 39.1,41.7 	"/>
</g>
<g>
	<polygon class="st1" points="33.9,75.7 30.9,75.7 30.9,58.9 22.1,58.9 22.1,75.7 19.1,75.7 19.1,55.9 33.9,55.9 	"/>
</g>
<g>
	<path class="st1" d="M31,35.7h-3v-7.2c-0.2-0.3-0.6-1-1.8-1c-1.2,0-1.6,0.6-1.8,1v7.2h-3V28l0.1-0.2c0.3-1.1,1.7-3.3,4.7-3.3
		c3,0,4.4,2.2,4.7,3.3L31,28V35.7z"/>
</g>
<g>
	<polygon class="st1" points="59.6,50.7 56.6,50.7 56.6,44.7 52.9,44.7 52.9,50.7 49.9,50.7 49.9,41.7 59.6,41.7 	"/>
</g>
<g>
	<polygon class="st1" points="76.6,50.7 73.6,50.7 73.6,44.7 69.9,44.7 69.9,50.7 66.9,50.7 66.9,41.7 76.6,41.7 	"/>
</g>
<g>
	<polygon class="st1" points="71.3,75.7 68.3,75.7 68.3,58.9 59.6,58.9 59.6,75.7 56.6,75.7 56.6,55.9 71.3,55.9 	"/>
</g>
<g>
	<path class="st1" d="M68.5,35.7h-3v-7.2c-0.2-0.3-0.6-1-1.8-1c-1.2,0-1.6,0.6-1.8,1v7.2h-3V28l0.1-0.2c0.3-1.1,1.7-3.3,4.7-3.3
		s4.4,2.2,4.7,3.3l0.1,0.2V35.7z"/>
</g>
<g>
	<polygon class="st1" points="96.6,50.7 93.6,50.7 93.6,44.7 89.9,44.7 89.9,50.7 86.9,50.7 86.9,41.7 96.6,41.7 	"/>
</g>
<g>
	<polygon class="st1" points="113.6,50.7 110.6,50.7 110.6,44.7 106.9,44.7 106.9,50.7 103.9,50.7 103.9,41.7 113.6,41.7 	"/>
</g>
<g>
	<polygon class="st1" points="108.3,75.7 105.3,75.7 105.3,58.9 96.6,58.9 96.6,75.7 93.6,75.7 93.6,55.9 108.3,55.9 	"/>
</g>
<g>
	<path class="st1" d="M105.5,35.7h-3v-7.2c-0.2-0.3-0.6-1-1.8-1c-1.2,0-1.7,0.7-1.8,1v7.2h-3V28l0.1-0.2c0.3-1.1,1.7-3.3,4.7-3.3
		s4.4,2.2,4.7,3.3l0.1,0.2V35.7z"/>
</g>
<g>
	<rect y="76.5" class="st1" width="127.9" height="3"/>
</g>
</svg>
