<svg id="outline-thumb_up-24px" xmlns="http://www.w3.org/2000/svg" width="89.973" height="89.972" viewBox="0 0 89.973 89.972">
  <path id="Path_400" data-name="Path 400" d="M0,0H89.972V89.972H0ZM0,0H89.972V89.972H0Z" fill="none"/>
  <path id="Path_401" data-name="Path 401" d="M30.991,75.977H64.73a7.447,7.447,0,0,0,6.9-4.574L82.95,44.974a7.407,7.407,0,0,0,.525-2.737v-7.5a7.52,7.52,0,0,0-7.5-7.5H52.322L55.883,10.11,56,8.91a5.643,5.643,0,0,0-1.649-3.974L50.372,1l-24.7,24.7a7.451,7.451,0,0,0-2.174,5.286V68.479A7.52,7.52,0,0,0,30.991,75.977Zm0-44.986,16.27-16.27L42.237,34.74h33.74v7.5L64.73,68.479H30.991ZM1,30.991H16V75.977H1Z" transform="translate(2.749 2.749)" fill="#3c72b9"/>
</svg>
